<svg version="1.1" viewBox="0.0 0.0 960.0 720.0" fill="none" stroke="none" stroke-linecap="square" stroke-miterlimit="10" xmlns:xlink="http://www.w3.org/1999/xlink" xmlns="http://www.w3.org/2000/svg"><clipPath id="p.0"><path d="m0 0l960.0 0l0 720.0l-960.0 0l0 -720.0z" clip-rule="nonzero"/></clipPath><g clip-path="url(#p.0)"><path fill="#000000" fill-opacity="0.0" d="m0 0l960.0 0l0 720.0l-960.0 0z" fill-rule="evenodd"/><path fill="#000000" fill-opacity="0.0" d="m218.66667 330.83466l159.99998 0l0 58.33069l-159.99998 0z" fill-rule="evenodd"/><path stroke="#000000" stroke-width="1.0" stroke-linejoin="round" stroke-linecap="butt" d="m218.66667 330.83466l159.99998 0l0 58.33069l-159.99998 0z" fill-rule="evenodd"/><path fill="#000000" d="m242.85541 366.91998l0 -9.671875l1.46875 0l0 1.46875q0.5625 -1.03125 1.03125 -1.359375q0.484375 -0.328125 1.0625 -0.328125q0.828125 0 1.6875 0.53125l-0.5625 1.515625q-0.609375 -0.359375 -1.203125 -0.359375q-0.546875 0 -0.96875 0.328125q-0.421875 0.328125 -0.609375 0.890625q-0.28125 0.875 -0.28125 1.921875l0 5.0625l-1.625 0zm12.540802 -1.1875q-0.921875 0.765625 -1.765625 1.09375q-0.828125 0.3125 -1.796875 0.3125q-1.59375 0 -2.453125 -0.78125q-0.859375 -0.78125 -0.859375 -1.984375q0 -0.71875 0.328125 -1.296875q0.328125 -0.59375 0.84375 -0.9375q0.53125 -0.359375 1.1875 -0.546875q0.46875 -0.125 1.453125 -0.25q1.984375 -0.234375 2.921875 -0.5625q0.015625 -0.34375 0.015625 -0.421875q0 -1.0 -0.46875 -1.421875q-0.625 -0.546875 -1.875 -0.546875q-1.15625 0 -1.703125 0.40625q-0.546875 0.40625 -0.8125 1.421875l-1.609375 -0.21875q0.21875 -1.015625 0.71875 -1.640625q0.5 -0.640625 1.453125 -0.984375q0.953125 -0.34375 2.1875 -0.34375q1.25 0 2.015625 0.296875q0.78125 0.28125 1.140625 0.734375q0.375 0.4375 0.515625 1.109375q0.078125 0.421875 0.078125 1.515625l0 2.1875q0 2.28125 0.109375 2.890625q0.109375 0.59375 0.40625 1.15625l-1.703125 0q-0.265625 -0.515625 -0.328125 -1.1875zm-0.140625 -3.671875q-0.890625 0.375 -2.671875 0.625q-1.015625 0.140625 -1.4375 0.328125q-0.421875 0.1875 -0.65625 0.53125q-0.21875 0.34375 -0.21875 0.78125q0 0.65625 0.5 1.09375q0.5 0.4375 1.453125 0.4375q0.9375 0 1.671875 -0.40625q0.75 -0.421875 1.09375 -1.140625q0.265625 -0.5625 0.265625 -1.640625l0 -0.609375zm3.5476074 1.96875l1.625 -0.25q0.125 0.96875 0.75 1.5q0.625 0.515625 1.75 0.515625q1.125 0 1.671875 -0.453125q0.546875 -0.46875 0.546875 -1.09375q0 -0.546875 -0.484375 -0.875q-0.328125 -0.21875 -1.671875 -0.546875q-1.8125 -0.46875 -2.515625 -0.796875q-0.6875 -0.328125 -1.046875 -0.90625q-0.359375 -0.59375 -0.359375 -1.3125q0 -0.640625 0.296875 -1.1875q0.296875 -0.5625 0.8125 -0.921875q0.375 -0.28125 1.03125 -0.46875q0.671875 -0.203125 1.421875 -0.203125q1.140625 0 2.0 0.328125q0.859375 0.328125 1.265625 0.890625q0.421875 0.5625 0.578125 1.5l-1.609375 0.21875q-0.109375 -0.75 -0.640625 -1.171875q-0.515625 -0.421875 -1.46875 -0.421875q-1.140625 0 -1.625 0.375q-0.46875 0.375 -0.46875 0.875q0 0.3125 0.1875 0.578125q0.203125 0.265625 0.640625 0.4375q0.234375 0.09375 1.4375 0.421875q1.75 0.453125 2.4375 0.75q0.6875 0.296875 1.078125 0.859375q0.390625 0.5625 0.390625 1.40625q0 0.828125 -0.484375 1.546875q-0.46875 0.71875 -1.375 1.125q-0.90625 0.390625 -2.046875 0.390625q-1.875 0 -2.875 -0.78125q-0.984375 -0.78125 -1.25 -2.328125zm9.984375 6.59375l0 -13.375l1.484375 0l0 1.25q0.53125 -0.734375 1.1875 -1.09375q0.671875 -0.375 1.625 -0.375q1.234375 0 2.171875 0.640625q0.953125 0.625 1.4375 1.796875q0.484375 1.15625 0.484375 2.546875q0 1.484375 -0.53125 2.671875q-0.53125 1.1875 -1.546875 1.828125q-1.015625 0.625 -2.140625 0.625q-0.8125 0 -1.46875 -0.34375q-0.65625 -0.34375 -1.0625 -0.875l0 4.703125l-1.640625 0zm1.484375 -8.484375q0 1.859375 0.75 2.765625q0.765625 0.890625 1.828125 0.890625q1.09375 0 1.875 -0.921875q0.78125 -0.9375 0.78125 -2.875q0 -1.84375 -0.765625 -2.765625q-0.75 -0.921875 -1.8125 -0.921875q-1.046875 0 -1.859375 0.984375q-0.796875 0.96875 -0.796875 2.84375zm10.391327 4.78125l-1.515625 0l0 -13.359375l1.640625 0l0 4.765625q1.046875 -1.296875 2.65625 -1.296875q0.890625 0 1.6875 0.359375q0.796875 0.359375 1.3125 1.015625q0.515625 0.640625 0.796875 1.5625q0.296875 0.921875 0.296875 1.96875q0 2.484375 -1.234375 3.84375q-1.21875 1.359375 -2.953125 1.359375q-1.703125 0 -2.6875 -1.4375l0 1.21875zm-0.015625 -4.90625q0 1.734375 0.484375 2.515625q0.765625 1.265625 2.09375 1.265625q1.078125 0 1.859375 -0.9375q0.78125 -0.9375 0.78125 -2.78125q0 -1.890625 -0.75 -2.796875q-0.75 -0.90625 -1.828125 -0.90625q-1.0625 0 -1.859375 0.9375q-0.78125 0.9375 -0.78125 2.703125zm15.516357 1.796875l1.6875 0.203125q-0.40625 1.484375 -1.484375 2.3125q-1.078125 0.8125 -2.765625 0.8125q-2.125 0 -3.375 -1.296875q-1.234375 -1.3125 -1.234375 -3.671875q0 -2.453125 1.25 -3.796875q1.265625 -1.34375 3.265625 -1.34375q1.9375 0 3.15625 1.328125q1.234375 1.3125 1.234375 3.703125q0 0.15625 0 0.4375l-7.21875 0q0.09375 1.59375 0.90625 2.453125q0.8125 0.84375 2.015625 0.84375q0.90625 0 1.546875 -0.46875q0.640625 -0.484375 1.015625 -1.515625zm-5.390625 -2.65625l5.40625 0q-0.109375 -1.21875 -0.625 -1.828125q-0.78125 -0.953125 -2.03125 -0.953125q-1.125 0 -1.90625 0.765625q-0.765625 0.75 -0.84375 2.015625zm9.125702 5.765625l0 -9.671875l1.46875 0l0 1.46875q0.5625 -1.03125 1.03125 -1.359375q0.484375 -0.328125 1.0625 -0.328125q0.828125 0 1.6875 0.53125l-0.5625 1.515625q-0.609375 -0.359375 -1.203125 -0.359375q-0.546875 0 -0.96875 0.328125q-0.421875 0.328125 -0.609375 0.890625q-0.28125 0.875 -0.28125 1.921875l0 5.0625l-1.625 0zm6.212677 0l0 -9.671875l1.46875 0l0 1.46875q0.5625 -1.03125 1.03125 -1.359375q0.484375 -0.328125 1.0625 -0.328125q0.828125 0 1.6875 0.53125l-0.5625 1.515625q-0.609375 -0.359375 -1.203125 -0.359375q-0.546875 0 -0.96875 0.328125q-0.421875 0.328125 -0.609375 0.890625q-0.28125 0.875 -0.28125 1.921875l0 5.0625l-1.625 0zm6.150177 3.71875l-0.1875 -1.53125q0.546875 0.140625 0.9375 0.140625q0.546875 0 0.875 -0.1875q0.328125 -0.171875 0.546875 -0.5q0.15625 -0.25 0.5 -1.21875q0.046875 -0.140625 0.140625 -0.40625l-3.671875 -9.6875l1.765625 0l2.015625 5.59375q0.390625 1.078125 0.703125 2.25q0.28125 -1.125 0.671875 -2.203125l2.078125 -5.640625l1.640625 0l-3.6875 9.828125q-0.59375 1.609375 -0.921875 2.203125q-0.4375 0.8125 -1.0 1.1875q-0.5625 0.375 -1.34375 0.375q-0.484375 0 -1.0625 -0.203125zm14.589569 -0.015625l0 -13.375l1.484375 0l0 1.25q0.53125 -0.734375 1.1875 -1.09375q0.671875 -0.375 1.625 -0.375q1.234375 0 2.171875 0.640625q0.953125 0.625 1.4375 1.796875q0.484375 1.15625 0.484375 2.546875q0 1.484375 -0.53125 2.671875q-0.53125 1.1875 -1.546875 1.828125q-1.015625 0.625 -2.140625 0.625q-0.8125 0 -1.46875 -0.34375q-0.65625 -0.34375 -1.0625 -0.875l0 4.703125l-1.640625 0zm1.484375 -8.484375q0 1.859375 0.75 2.765625q0.765625 0.890625 1.828125 0.890625q1.09375 0 1.875 -0.921875q0.78125 -0.9375 0.78125 -2.875q0 -1.84375 -0.765625 -2.765625q-0.75 -0.921875 -1.8125 -0.921875q-1.046875 0 -1.859375 0.984375q-0.796875 0.96875 -0.796875 2.84375zm8.891327 -6.6875l0 -1.890625l1.640625 0l0 1.890625l-1.640625 0zm0 11.46875l0 -9.671875l1.640625 0l0 9.671875l-1.640625 0zm8.875 -3.53125l1.640625 -0.21875q0.28125 1.40625 0.953125 2.015625q0.6875 0.609375 1.65625 0.609375q1.15625 0 1.953125 -0.796875q0.796875 -0.796875 0.796875 -1.984375q0 -1.125 -0.734375 -1.859375q-0.734375 -0.734375 -1.875 -0.734375q-0.46875 0 -1.15625 0.171875l0.1875 -1.4375q0.15625 0.015625 0.265625 0.015625q1.046875 0 1.875 -0.546875q0.84375 -0.546875 0.84375 -1.671875q0 -0.90625 -0.609375 -1.5q-0.609375 -0.59375 -1.578125 -0.59375q-0.953125 0 -1.59375 0.609375q-0.640625 0.59375 -0.8125 1.796875l-1.640625 -0.296875q0.296875 -1.640625 1.359375 -2.546875q1.0625 -0.90625 2.65625 -0.90625q1.09375 0 2.0 0.46875q0.921875 0.46875 1.40625 1.28125q0.5 0.8125 0.5 1.71875q0 0.859375 -0.46875 1.578125q-0.46875 0.703125 -1.375 1.125q1.1875 0.28125 1.84375 1.140625q0.65625 0.859375 0.65625 2.15625q0 1.734375 -1.28125 2.953125q-1.265625 1.21875 -3.21875 1.21875q-1.765625 0 -2.921875 -1.046875q-1.15625 -1.046875 -1.328125 -2.71875z" fill-rule="nonzero"/><path fill="#000000" fill-opacity="0.0" d="m601.3333 330.83466l160.0 0l0 58.33069l-160.0 0z" fill-rule="evenodd"/><path stroke="#000000" stroke-width="1.0" stroke-linejoin="round" stroke-linecap="butt" d="m601.3333 330.83466l160.0 0l0 58.33069l-160.0 0z" fill-rule="evenodd"/><path fill="#000000" d="m624.5851 361.6856l0 -1.578125l5.65625 0l0 4.953125q-1.296875 1.046875 -2.6875 1.578125q-1.375 0.515625 -2.84375 0.515625q-1.96875 0 -3.578125 -0.84375q-1.609375 -0.84375 -2.421875 -2.4375q-0.8125 -1.59375 -0.8125 -3.5625q0 -1.953125 0.8125 -3.640625q0.8125 -1.6875 2.34375 -2.5q1.53125 -0.828125 3.515625 -0.828125q1.453125 0 2.625 0.46875q1.171875 0.46875 1.828125 1.3125q0.671875 0.828125 1.015625 2.171875l-1.59375 0.4375q-0.296875 -1.015625 -0.75 -1.59375q-0.4375 -0.59375 -1.265625 -0.9375q-0.828125 -0.34375 -1.84375 -0.34375q-1.203125 0 -2.09375 0.375q-0.890625 0.359375 -1.4375 0.96875q-0.53125 0.59375 -0.828125 1.3125q-0.515625 1.234375 -0.515625 2.6875q0 1.78125 0.609375 2.984375q0.625 1.203125 1.796875 1.796875q1.171875 0.578125 2.5 0.578125q1.140625 0 2.234375 -0.4375q1.09375 -0.453125 1.65625 -0.953125l0 -2.484375l-3.921875 0zm8.245789 5.234375l0 -13.359375l1.8125 0l7.015625 10.484375l0 -10.484375l1.6875 0l0 13.359375l-1.8125 0l-7.015625 -10.5l0 10.5l-1.6875 0zm12.894836 -4.296875l1.65625 -0.140625q0.125 1.0 0.546875 1.640625q0.4375 0.640625 1.34375 1.046875q0.921875 0.390625 2.0625 0.390625q1.0 0 1.78125 -0.296875q0.78125 -0.296875 1.15625 -0.8125q0.375 -0.53125 0.375 -1.15625q0 -0.625 -0.375 -1.09375q-0.359375 -0.46875 -1.1875 -0.796875q-0.546875 -0.203125 -2.390625 -0.640625q-1.828125 -0.453125 -2.5625 -0.84375q-0.96875 -0.5 -1.4375 -1.234375q-0.46875 -0.75 -0.46875 -1.671875q0 -1.0 0.578125 -1.875q0.578125 -0.890625 1.671875 -1.34375q1.109375 -0.453125 2.453125 -0.453125q1.484375 0 2.609375 0.484375q1.140625 0.46875 1.75 1.40625q0.609375 0.921875 0.65625 2.09375l-1.6875 0.125q-0.140625 -1.265625 -0.9375 -1.90625q-0.78125 -0.65625 -2.3125 -0.65625q-1.609375 0 -2.34375 0.59375q-0.734375 0.59375 -0.734375 1.421875q0 0.71875 0.53125 1.171875q0.5 0.46875 2.65625 0.96875q2.15625 0.484375 2.953125 0.84375q1.171875 0.53125 1.71875 1.359375q0.5625 0.828125 0.5625 1.90625q0 1.0625 -0.609375 2.015625q-0.609375 0.9375 -1.75 1.46875q-1.140625 0.515625 -2.578125 0.515625q-1.8125 0 -3.046875 -0.53125q-1.21875 -0.53125 -1.921875 -1.59375q-0.6875 -1.0625 -0.71875 -2.40625zm12.4435425 0l1.65625 -0.140625q0.125 1.0 0.546875 1.640625q0.4375 0.640625 1.34375 1.046875q0.921875 0.390625 2.0625 0.390625q1.0 0 1.78125 -0.296875q0.78125 -0.296875 1.15625 -0.8125q0.375 -0.53125 0.375 -1.15625q0 -0.625 -0.375 -1.09375q-0.359375 -0.46875 -1.1875 -0.796875q-0.546875 -0.203125 -2.390625 -0.640625q-1.828125 -0.453125 -2.5625 -0.84375q-0.96875 -0.5 -1.4375 -1.234375q-0.46875 -0.75 -0.46875 -1.671875q0 -1.0 0.578125 -1.875q0.578125 -0.890625 1.671875 -1.34375q1.109375 -0.453125 2.453125 -0.453125q1.484375 0 2.609375 0.484375q1.140625 0.46875 1.75 1.40625q0.609375 0.921875 0.65625 2.09375l-1.6875 0.125q-0.140625 -1.265625 -0.9375 -1.90625q-0.78125 -0.65625 -2.3125 -0.65625q-1.609375 0 -2.34375 0.59375q-0.734375 0.59375 -0.734375 1.421875q0 0.71875 0.53125 1.171875q0.5 0.46875 2.65625 0.96875q2.15625 0.484375 2.953125 0.84375q1.171875 0.53125 1.71875 1.359375q0.5625 0.828125 0.5625 1.90625q0 1.0625 -0.609375 2.015625q-0.609375 0.9375 -1.75 1.46875q-1.140625 0.515625 -2.578125 0.515625q-1.8125 0 -3.046875 -0.53125q-1.21875 -0.53125 -1.921875 -1.59375q-0.6875 -1.0625 -0.71875 -2.40625z" fill-rule="nonzero"/><path fill="#000000" d="m681.86285 359.20123l0.59375 0.21875q0.296875 0.296875 -0.21875 0.375l-0.671875 1.328125l5.640625 0l0 1.421875l-1.921875 0q-0.59375 1.921875 -1.40625 2.890625q1.84375 0.671875 3.484375 1.640625l-0.890625 1.328125q-2.453125 -1.328125 -3.640625 -1.859375q-2.453125 1.640625 -5.71875 2.15625l-0.515625 -1.328125q3.125 -0.375 4.75 -1.5l-1.921875 -0.8125l-0.453125 0.671875l-1.1875 -0.59375l1.484375 -2.59375l-2.21875 0l0 -1.421875l2.96875 0l0.890625 -1.921875l-4.53125 0l0 -1.40625l3.046875 0l-0.828125 -2.671875l-1.109375 0l0 -1.421875l3.640625 0l0 -2.078125l1.40625 0q0.59375 0.078125 0.078125 0.453125l0 1.625l4.15625 0l0 1.421875l-1.5625 0l-0.8125 2.671875l3.40625 0l0 1.40625l-5.9375 0zm0.671875 5.71875q0.75 -0.828125 1.1875 -2.375l-2.8125 0l-0.890625 1.484375l2.515625 0.890625zm-1.5625 -7.125l1.9375 0l0.734375 -2.671875l-3.484375 0l0.8125 2.671875zm-7.9375 -6.171875l1.40625 0q0.59375 0.078125 0.078125 0.453125l0 2.890625l2.078125 0l0 1.40625l-2.078125 0l0 3.859375l1.5625 -0.515625l0.515625 1.265625l-2.078125 0.8125l0 5.875q0 1.03125 -1.03125 1.03125l-1.421875 0l-0.21875 -1.40625l0.890625 0q0.296875 0 0.296875 -0.296875l0 -4.6875l-1.265625 0.375q-0.0625 0.515625 -0.359375 0.21875l-0.59375 -1.625l2.21875 -0.59375l0 -4.3125l-2.0 0l0 -1.40625l2.0 0l0 -3.34375zm21.671875 16.484375l0 -4.671875l-3.703125 1.328125q-0.234375 0.75 -0.53125 0.15625l-0.734375 -1.484375l1.484375 -0.453125l0 -9.203125l1.40625 0q0.59375 0.078125 0.078125 0.453125l0 8.3125l2.0 -0.671875l0 -9.875l1.40625 0q0.59375 0.078125 0.078125 0.453125l0 15.65625l-1.484375 0zm6.984375 -5.71875q1.25 -2.15625 1.625 -4.96875l-3.265625 0q0.375 2.96875 1.640625 4.96875zm-5.125 -2.21875q2.453125 -2.828125 3.40625 -8.3125l1.1875 0.21875q0.890625 0.21875 0.078125 0.515625q-0.296875 1.34375 -0.890625 3.421875l6.15625 0l0 1.40625l-1.78125 0q-0.59375 3.703125 -2.140625 6.15625q1.625 1.640625 4.0 2.671875l-0.8125 1.484375q-2.296875 -1.109375 -4.078125 -2.890625q-1.78125 2.078125 -4.234375 3.125l-0.8125 -1.34375q2.8125 -1.1875 4.15625 -2.96875q-1.1875 -1.859375 -1.859375 -4.375q-0.8125 1.328125 -1.34375 1.84375l-1.03125 -0.953125zm17.4375 6.96875q4.671875 -0.890625 5.046875 -2.96875l-4.671875 0l0 -1.1875l4.890625 0l0 -1.1875l-1.625 0l-1.640625 0l0 -5.9375l1.71875 0l0 -1.40625l-2.75 0l0 -1.1875l2.75 0l0 -1.859375l1.1875 0q0.59375 0.078125 0.0625 0.453125l0 1.40625l2.234375 0l0 -1.78125l1.1875 0q0.59375 0.078125 0.078125 0.4375l0 1.34375l2.890625 0l0 1.1875l-2.890625 0l0 1.40625l1.78125 0l0 5.9375l-3.5 0l0 1.1875l5.046875 0l0 1.1875l-4.75 0q0.96875 2.0 5.046875 2.828125l-0.65625 1.5625q-3.5625 -0.96875 -5.28125 -3.5q-1.1875 2.609375 -5.484375 3.5l-0.671875 -1.421875zm-1.1875 -12.171875l2.375 0l0 1.40625l-2.375 0l0 1.9375q1.109375 0.734375 2.53125 2.515625l-1.046875 1.34375q-0.671875 -1.046875 -1.484375 -2.234375l0 8.6875l-1.484375 0l0 -7.859375q-0.890625 2.078125 -1.78125 3.1875l-1.109375 -1.1875q2.515625 -3.640625 2.890625 -6.390625l-2.453125 0l0 -1.40625l2.453125 0l0 -3.5625l1.40625 0q0.59375 0.078125 0.078125 0.453125l0 3.109375zm4.453125 2.078125l0 1.1875l5.71875 0l0 -1.1875l-5.71875 0zm0 2.375l0 1.1875l5.71875 0l0 -1.1875l-5.71875 0zm3.9375 -4.96875l-2.234375 0l0 1.40625l2.234375 0l0 -1.40625zm13.5 0.4375q-1.484375 2.15625 -3.703125 4.453125l2.96875 -0.140625l-0.890625 -1.34375l1.1875 -0.65625q1.1875 1.40625 2.0 3.1875l-1.40625 0.671875l-0.375 -0.75l-1.921875 0.15625l0 8.015625l-1.484375 0l0 -7.875l-2.828125 0.21875q-0.078125 0.53125 -0.375 0.234375l-0.296875 -1.640625l1.640625 0q0.59375 -0.59375 1.328125 -1.40625q-1.1875 -1.046875 -2.59375 -2.078125l0.8125 -1.046875l0.53125 0.375q1.703125 -2.453125 2.21875 -3.78125l1.265625 0.734375q0.4375 0.296875 -0.15625 0.375q-0.8125 1.40625 -2.375 3.34375l1.1875 0.96875q1.125 -1.34375 2.15625 -3.203125l1.34375 0.828125q0.359375 0.296875 -0.234375 0.359375zm8.609375 11.515625l1.421875 0l0 1.40625l-9.796875 0l0 -1.40625l1.78125 0l0 -13.953125l6.59375 0l0 13.953125zm-1.484375 0l0 -4.015625l-3.625 0l0 4.015625l3.625 0zm0 -5.421875l0 -2.890625l-3.625 0l0 2.890625l3.625 0zm0 -4.3125l0 -2.8125l-3.625 0l0 2.8125l3.625 0zm-7.1875 5.125q0.953125 2.078125 1.1875 3.5625l-1.484375 0.453125q0 -1.125 -1.046875 -3.640625l1.34375 -0.375zm-4.234375 0.453125q0.515625 0.140625 -0.078125 0.4375q-0.375 2.296875 -1.265625 4.3125l-1.25 -0.75q0.8125 -1.625 1.1875 -4.234375l1.40625 0.234375z" fill-rule="nonzero"/><path fill="#000000" fill-opacity="0.0" d="m601.3333 469.18634l160.0 0l0 58.33075l-160.0 0z" fill-rule="evenodd"/><path stroke="#000000" stroke-width="1.0" stroke-linejoin="round" stroke-linecap="butt" d="m601.3333 469.18634l160.0 0l0 58.33075l-160.0 0z" fill-rule="evenodd"/><path fill="#000000" d="m620.53644 491.91232l1.765625 0l0 7.71875q0 2.015625 -0.453125 3.203125q-0.453125 1.1875 -1.640625 1.9375q-1.1875 0.734375 -3.125 0.734375q-1.875 0 -3.078125 -0.640625q-1.1875 -0.65625 -1.703125 -1.875q-0.5 -1.234375 -0.5 -3.359375l0 -7.71875l1.765625 0l0 7.71875q0 1.734375 0.3125 2.5625q0.328125 0.8125 1.109375 1.265625q0.796875 0.453125 1.9375 0.453125q1.953125 0 2.78125 -0.890625q0.828125 -0.890625 0.828125 -3.390625l0 -7.71875zm4.1135864 9.0625l1.65625 -0.140625q0.125 1.0 0.546875 1.640625q0.4375 0.640625 1.34375 1.046875q0.921875 0.390625 2.0625 0.390625q1.0 0 1.78125 -0.296875q0.78125 -0.296875 1.15625 -0.8125q0.375 -0.53125 0.375 -1.15625q0 -0.625 -0.375 -1.09375q-0.359375 -0.46875 -1.1875 -0.796875q-0.546875 -0.203125 -2.390625 -0.640625q-1.828125 -0.453125 -2.5625 -0.84375q-0.96875 -0.5 -1.4375 -1.234375q-0.46875 -0.75 -0.46875 -1.671875q0 -1.0 0.578125 -1.875q0.578125 -0.890625 1.671875 -1.34375q1.109375 -0.453125 2.453125 -0.453125q1.484375 0 2.609375 0.484375q1.140625 0.46875 1.75 1.40625q0.609375 0.921875 0.65625 2.09375l-1.6875 0.125q-0.140625 -1.265625 -0.9375 -1.90625q-0.78125 -0.65625 -2.3125 -0.65625q-1.609375 0 -2.34375 0.59375q-0.734375 0.59375 -0.734375 1.421875q0 0.71875 0.53125 1.171875q0.5 0.46875 2.65625 0.96875q2.15625 0.484375 2.953125 0.84375q1.171875 0.53125 1.71875 1.359375q0.5625 0.828125 0.5625 1.90625q0 1.0625 -0.609375 2.015625q-0.609375 0.9375 -1.75 1.46875q-1.140625 0.515625 -2.578125 0.515625q-1.8125 0 -3.046875 -0.53125q-1.21875 -0.53125 -1.921875 -1.59375q-0.6875 -1.0625 -0.71875 -2.40625zm12.9592285 4.296875l0 -13.359375l5.015625 0q1.53125 0 2.453125 0.40625q0.921875 0.40625 1.4375 1.25q0.53125 0.84375 0.53125 1.765625q0 0.859375 -0.46875 1.625q-0.453125 0.75 -1.390625 1.203125q1.203125 0.359375 1.859375 1.21875q0.65625 0.859375 0.65625 2.015625q0 0.9375 -0.40625 1.75q-0.390625 0.796875 -0.984375 1.234375q-0.578125 0.4375 -1.453125 0.671875q-0.875 0.21875 -2.15625 0.21875l-5.09375 0zm1.78125 -7.75l2.875 0q1.1875 0 1.6875 -0.140625q0.671875 -0.203125 1.015625 -0.671875q0.34375 -0.46875 0.34375 -1.171875q0 -0.65625 -0.328125 -1.15625q-0.3125 -0.515625 -0.90625 -0.703125q-0.59375 -0.1875 -2.03125 -0.1875l-2.65625 0l0 4.03125zm0 6.171875l3.3125 0q0.859375 0 1.203125 -0.0625q0.609375 -0.109375 1.015625 -0.359375q0.421875 -0.265625 0.6875 -0.75q0.265625 -0.484375 0.265625 -1.125q0 -0.75 -0.390625 -1.296875q-0.375 -0.546875 -1.0625 -0.765625q-0.671875 -0.234375 -1.953125 -0.234375l-3.078125 0l0 4.59375z" fill-rule="nonzero"/><path fill="#000000" d="m664.8809 506.31857q-1.125 -1.640625 -2.75 -3.421875l1.1875 -0.8125q1.40625 1.109375 2.890625 3.1875l-1.328125 1.046875zm-10.84375 -14.265625l11.359375 0l0 1.421875l-1.5625 0l0 2.59375l2.59375 0l0 1.40625l-2.59375 0l0 2.59375l2.375 0l0 1.421875l-15.953125 0l0 -1.421875l2.890625 0l0 -2.59375l-3.109375 0l0 -1.40625l3.109375 0l0 -2.53125q-1.03125 1.484375 -2.0 2.078125l-0.890625 -1.25q2.15625 -1.71875 3.1875 -4.453125l1.484375 0.4375q0.296875 0.296875 -0.21875 0.375l-0.671875 1.328125zm5.9375 14.265625q-0.59375 -2.390625 -1.109375 -3.796875l1.484375 -0.4375q0.59375 1.40625 1.265625 3.703125l-1.640625 0.53125zm-5.78125 -3.578125q0.296875 0.296875 -0.234375 0.375q-1.25 2.3125 -2.4375 3.5l-1.1875 -1.046875q1.546875 -1.78125 2.4375 -3.5625l1.421875 0.734375zm6.59375 -9.265625l0 2.59375l1.5625 0l0 -2.59375l-1.5625 0zm-3.109375 0l0 2.59375l1.625 0l0 -2.59375l-1.625 0zm-3.046875 2.59375l1.5625 0l0 -2.59375l-1.5625 0l0 2.59375zm6.15625 4.0l1.5625 0l0 -2.59375l-1.5625 0l0 2.59375zm-3.109375 -2.59375l0 2.59375l1.625 0l0 -2.59375l-1.625 0zm-3.046875 0l0 2.59375l1.5625 0l0 -2.59375l-1.5625 0zm2.375 4.75q0.453125 2.15625 0.375 4.234375l-1.640625 0.15625q0 -2.3125 -0.296875 -4.3125l1.5625 -0.078125zm23.90625 -10.46875l3.5625 0l0 6.53125l-3.265625 0l0 0.890625q0 0.53125 0.8125 1.859375l2.296875 -2.296875l1.046875 1.1875q0.0625 0.375 -0.375 0.21875l-2.296875 1.78125q1.1875 1.5625 3.1875 2.828125l-0.8125 1.484375q-2.3125 -1.484375 -3.859375 -4.234375l0 3.71875q0 1.109375 -0.890625 1.109375l-1.421875 0l-0.296875 -1.1875l1.046875 0q0.296875 0 0.296875 -0.296875l0 -7.0625l-1.640625 0l-1.546875 0l0 -6.53125l2.8125 0l0.453125 -2.0l1.546875 0.296875q0.59375 0.21875 -0.0625 0.453125l-0.59375 1.25zm-1.484375 8.390625l-0.15625 0.375q-0.078125 4.15625 -3.265625 5.9375l-0.96875 -1.109375q2.671875 -1.640625 2.828125 -4.3125l-1.9375 0l0 -1.1875l2.15625 0l0.21875 -0.21875l1.125 0.515625zm-6.234375 -9.046875q-1.5625 2.515625 -2.078125 3.265625l0.953125 0.8125l2.015625 -3.125l1.1875 0.828125q0.296875 0.296875 -0.234375 0.359375q-2.0 2.96875 -3.265625 4.453125l2.453125 -0.21875l-0.515625 -1.03125l1.109375 -0.59375q1.109375 1.40625 1.640625 3.03125l-1.34375 0.59375l-0.375 -0.8125l-1.546875 0.21875l0 8.171875l-1.484375 0l0 -8.015625l-2.453125 0.140625q-0.375 0.453125 -0.453125 -0.296875l-0.140625 -1.109375l1.484375 0l1.03125 -1.40625l-2.296875 -1.859375l0.75 -1.109375l0.359375 0.21875q1.484375 -2.296875 2.078125 -3.5625l1.34375 0.671875q0.296875 0.296875 -0.21875 0.375zm-4.15625 13.796875q0.59375 -2.8125 0.59375 -4.453125l1.328125 0.15625q0.59375 0.140625 0.078125 0.359375q0 2.453125 -0.59375 4.6875l-1.40625 -0.75zm8.96875 -10.46875l5.203125 0l0 -1.484375l-5.203125 0l0 1.484375zm5.203125 2.671875l0 -1.484375l-5.203125 0l0 1.484375l5.203125 0zm-8.171875 3.265625q0.53125 1.125 0.75 3.125l-1.40625 0.296875q-0.078125 -1.265625 -0.59375 -3.125l1.25 -0.296875zm12.546875 4.09375q0.59375 -1.71875 0.890625 -4.09375l1.34375 0.296875q0.21875 0.234375 -0.15625 0.453125q-0.296875 2.296875 -0.8125 3.9375l-1.265625 -0.59375zm2.890625 -6.609375l2.3125 -0.15625l-0.59375 -1.25l1.109375 -0.53125q0.734375 1.1875 1.328125 2.828125l0 -8.171875l9.4375 0l0 15.0q0 1.109375 -0.96875 1.109375l-1.40625 0l-0.296875 -1.1875l1.1875 0q0.21875 0 0.21875 -0.21875l0 -5.5l-4.078125 0l0 2.078125q0 0.453125 0.4375 0.453125l2.59375 0l0 1.1875l-2.96875 0q-1.328125 0 -1.328125 -1.34375l0 -2.375l-1.5625 0l0 7.140625l-1.265625 0l0 -7.796875l-1.109375 0.515625l-0.296875 -0.75l-1.40625 0.15625l0 7.796875l-1.265625 0l0 -7.65625l-2.375 0.234375q-0.21875 0.65625 -0.375 0.21875l-0.21875 -1.703125l1.265625 0l1.265625 -1.71875q-1.265625 -1.40625 -2.453125 -2.4375l0.890625 -0.96875l0.671875 0.671875l1.78125 -3.5l1.25 0.75q0.375 0.296875 -0.296875 0.375l-1.84375 3.265625l0.734375 0.734375l1.859375 -2.96875l1.1875 0.8125q0.375 0.296875 -0.296875 0.375l-3.125 4.53125zm9.28125 -2.15625l1.046875 -3.265625l1.40625 0.375q0.515625 0.140625 -0.21875 0.375l-1.125 2.515625l1.9375 0l0 -3.9375l-6.90625 0l0 3.9375l3.859375 0zm-6.234375 4.53125q0.671875 1.5625 0.890625 3.5625l-1.265625 0.515625q-0.21875 -2.078125 -0.734375 -3.703125l1.109375 -0.375zm4.453125 -7.71875q0.671875 0.8125 1.265625 2.296875l-1.1875 0.515625q-0.515625 -1.484375 -1.1875 -2.375l1.109375 -0.4375zm-2.078125 6.078125l2.828125 0l0 -1.703125l-2.828125 0l0 1.703125zm6.90625 0l0 -1.703125l-2.828125 0l0 1.703125l2.828125 0zm11.0625 -1.546875l0 -7.0625l1.546875 0q0.75 0.15625 0.078125 0.59375l0 2.3125l6.015625 0l0 1.546875l-6.015625 0l0 2.609375l7.796875 0l0 1.546875l-7.796875 0l0 8.390625l-1.625 0l0 -8.390625l-6.828125 0l0 -1.546875l6.828125 0zm3.328125 2.671875q2.234375 1.109375 5.046875 3.265625l-1.03125 1.546875q-2.75 -2.296875 -4.90625 -3.40625l0.890625 -1.40625z" fill-rule="nonzero"/><path fill="#000000" fill-opacity="0.0" d="m378.65616 316.21783l108.346466 0l0 36.75592l-108.346466 0z" fill-rule="evenodd"/><path fill="#000000" d="m397.85928 329.77847l1.765625 0l0 7.71875q0 2.015625 -0.453125 3.203125q-0.453125 1.1875 -1.640625 1.9375q-1.1875 0.734375 -3.125 0.734375q-1.875 0 -3.078125 -0.640625q-1.1875 -0.65625 -1.703125 -1.875q-0.5 -1.234375 -0.5 -3.359375l0 -7.71875l1.765625 0l0 7.71875q0 1.734375 0.3125 2.5625q0.328125 0.8125 1.109375 1.265625q0.796875 0.453125 1.9375 0.453125q1.953125 0 2.78125 -0.890625q0.828125 -0.890625 0.828125 -3.390625l0 -7.71875zm4.1135864 9.0625l1.65625 -0.140625q0.125 1.0 0.546875 1.640625q0.4375 0.640625 1.34375 1.046875q0.921875 0.390625 2.0625 0.390625q1.0 0 1.78125 -0.296875q0.78125 -0.296875 1.15625 -0.8125q0.375 -0.53125 0.375 -1.15625q0 -0.625 -0.375 -1.09375q-0.359375 -0.46875 -1.1875 -0.796875q-0.546875 -0.203125 -2.390625 -0.640625q-1.828125 -0.453125 -2.5625 -0.84375q-0.96875 -0.5 -1.4375 -1.234375q-0.46875 -0.75 -0.46875 -1.671875q0 -1.0 0.578125 -1.875q0.578125 -0.890625 1.671875 -1.34375q1.109375 -0.453125 2.453125 -0.453125q1.484375 0 2.609375 0.484375q1.140625 0.46875 1.75 1.40625q0.609375 0.921875 0.65625 2.09375l-1.6875 0.125q-0.140625 -1.265625 -0.9375 -1.90625q-0.78125 -0.65625 -2.3125 -0.65625q-1.609375 0 -2.34375 0.59375q-0.734375 0.59375 -0.734375 1.421875q0 0.71875 0.53125 1.171875q0.5 0.46875 2.65625 0.96875q2.15625 0.484375 2.953125 0.84375q1.171875 0.53125 1.71875 1.359375q0.5625 0.828125 0.5625 1.90625q0 1.0625 -0.609375 2.015625q-0.609375 0.9375 -1.75 1.46875q-1.140625 0.515625 -2.578125 0.515625q-1.8125 0 -3.046875 -0.53125q-1.21875 -0.53125 -1.921875 -1.59375q-0.6875 -1.0625 -0.71875 -2.40625zm12.959198 4.296875l0 -13.359375l5.015625 0q1.53125 0 2.453125 0.40625q0.921875 0.40625 1.4375 1.25q0.53125 0.84375 0.53125 1.765625q0 0.859375 -0.46875 1.625q-0.453125 0.75 -1.390625 1.203125q1.203125 0.359375 1.859375 1.21875q0.65625 0.859375 0.65625 2.015625q0 0.9375 -0.40625 1.75q-0.390625 0.796875 -0.984375 1.234375q-0.578125 0.4375 -1.453125 0.671875q-0.875 0.21875 -2.15625 0.21875l-5.09375 0zm1.78125 -7.75l2.875 0q1.1875 0 1.6875 -0.140625q0.671875 -0.203125 1.015625 -0.671875q0.34375 -0.46875 0.34375 -1.171875q0 -0.65625 -0.328125 -1.15625q-0.3125 -0.515625 -0.90625 -0.703125q-0.59375 -0.1875 -2.03125 -0.1875l-2.65625 0l0 4.03125zm0 6.171875l3.3125 0q0.859375 0 1.203125 -0.0625q0.609375 -0.109375 1.015625 -0.359375q0.421875 -0.265625 0.6875 -0.75q0.265625 -0.484375 0.265625 -1.125q0 -0.75 -0.390625 -1.296875q-0.375 -0.546875 -1.0625 -0.765625q-0.671875 -0.234375 -1.953125 -0.234375l-3.078125 0l0 4.59375zm22.033112 -1.96875l1.609375 0.21875q-0.265625 1.65625 -1.359375 2.609375q-1.078125 0.9375 -2.671875 0.9375q-1.984375 0 -3.1875 -1.296875q-1.203125 -1.296875 -1.203125 -3.71875q0 -1.578125 0.515625 -2.75q0.515625 -1.171875 1.578125 -1.75q1.0625 -0.59375 2.3125 -0.59375q1.578125 0 2.578125 0.796875q1.0 0.796875 1.28125 2.265625l-1.59375 0.234375q-0.234375 -0.96875 -0.8125 -1.453125q-0.578125 -0.5 -1.390625 -0.5q-1.234375 0 -2.015625 0.890625q-0.78125 0.890625 -0.78125 2.8125q0 1.953125 0.75 2.84375q0.75 0.875 1.953125 0.875q0.96875 0 1.609375 -0.59375q0.65625 -0.59375 0.828125 -1.828125zm9.328125 2.359375q-0.921875 0.765625 -1.765625 1.09375q-0.828125 0.3125 -1.796875 0.3125q-1.59375 0 -2.453125 -0.78125q-0.859375 -0.78125 -0.859375 -1.984375q0 -0.71875 0.328125 -1.296875q0.328125 -0.59375 0.84375 -0.9375q0.53125 -0.359375 1.1875 -0.546875q0.46875 -0.125 1.453125 -0.25q1.984375 -0.234375 2.921875 -0.5625q0.015625 -0.34375 0.015625 -0.421875q0 -1.0 -0.46875 -1.421875q-0.625 -0.546875 -1.875 -0.546875q-1.15625 0 -1.703125 0.40625q-0.546875 0.40625 -0.8125 1.421875l-1.609375 -0.21875q0.21875 -1.015625 0.71875 -1.640625q0.5 -0.640625 1.453125 -0.984375q0.953125 -0.34375 2.1875 -0.34375q1.25 0 2.015625 0.296875q0.78125 0.28125 1.140625 0.734375q0.375 0.4375 0.515625 1.109375q0.078125 0.421875 0.078125 1.515625l0 2.1875q0 2.28125 0.109375 2.890625q0.109375 0.59375 0.40625 1.15625l-1.703125 0q-0.265625 -0.515625 -0.328125 -1.1875zm-0.140625 -3.671875q-0.890625 0.375 -2.671875 0.625q-1.015625 0.140625 -1.4375 0.328125q-0.421875 0.1875 -0.65625 0.53125q-0.21875 0.34375 -0.21875 0.78125q0 0.65625 0.5 1.09375q0.5 0.4375 1.453125 0.4375q0.9375 0 1.671875 -0.40625q0.75 -0.421875 1.09375 -1.140625q0.265625 -0.5625 0.265625 -1.640625l0 -0.609375zm5.7038574 4.859375l-1.515625 0l0 -13.359375l1.640625 0l0 4.765625q1.046875 -1.296875 2.65625 -1.296875q0.890625 0 1.6875 0.359375q0.796875 0.359375 1.3125 1.015625q0.515625 0.640625 0.796875 1.5625q0.296875 0.921875 0.296875 1.96875q0 2.484375 -1.234375 3.84375q-1.21875 1.359375 -2.953125 1.359375q-1.703125 0 -2.6875 -1.4375l0 1.21875zm-0.015625 -4.90625q0 1.734375 0.484375 2.515625q0.765625 1.265625 2.09375 1.265625q1.078125 0 1.859375 -0.9375q0.78125 -0.9375 0.78125 -2.78125q0 -1.890625 -0.75 -2.796875q-0.75 -0.90625 -1.828125 -0.90625q-1.0625 0 -1.859375 0.9375q-0.78125 0.9375 -0.78125 2.703125zm8.844452 4.90625l0 -13.359375l1.640625 0l0 13.359375l-1.640625 0zm10.816711 -3.109375l1.6875 0.203125q-0.40625 1.484375 -1.484375 2.3125q-1.078125 0.8125 -2.765625 0.8125q-2.125 0 -3.375 -1.296875q-1.234375 -1.3125 -1.234375 -3.671875q0 -2.453125 1.25 -3.796875q1.265625 -1.34375 3.265625 -1.34375q1.9375 0 3.15625 1.328125q1.234375 1.3125 1.234375 3.703125q0 0.15625 0 0.4375l-7.21875 0q0.09375 1.59375 0.90625 2.453125q0.8125 0.84375 2.015625 0.84375q0.90625 0 1.546875 -0.46875q0.640625 -0.484375 1.015625 -1.515625zm-5.390625 -2.65625l5.40625 0q-0.109375 -1.21875 -0.625 -1.828125q-0.78125 -0.953125 -2.03125 -0.953125q-1.125 0 -1.90625 0.765625q-0.765625 0.75 -0.84375 2.015625z" fill-rule="nonzero"/><path fill="#000000" fill-opacity="0.0" d="m378.66666 360.0l111.33414 0l0 138.36221l111.34302 0" fill-rule="evenodd"/><path stroke="#000000" stroke-width="1.0" stroke-linejoin="round" stroke-linecap="butt" d="m378.66666 360.0l111.33414 0l0 138.36221l111.34302 0" fill-rule="evenodd"/><path fill="#000000" fill-opacity="0.0" d="m601.3333 192.48294l160.0 0l0 58.330704l-160.0 0z" fill-rule="evenodd"/><path stroke="#000000" stroke-width="1.0" stroke-linejoin="round" stroke-linecap="butt" d="m601.3333 192.48294l160.0 0l0 58.330704l-160.0 0z" fill-rule="evenodd"/><path fill="#000000" d="m642.9784 215.20891l1.765625 0l0 7.71875q0 2.015625 -0.453125 3.203125q-0.453125 1.1875 -1.640625 1.9375q-1.1875 0.734375 -3.125 0.734375q-1.875 0 -3.078125 -0.640625q-1.1875 -0.65625 -1.703125 -1.875q-0.5 -1.234375 -0.5 -3.359375l0 -7.71875l1.765625 0l0 7.71875q0 1.734375 0.3125 2.5625q0.328125 0.8125 1.109375 1.265625q0.796875 0.453125 1.9375 0.453125q1.953125 0 2.78125 -0.890625q0.828125 -0.890625 0.828125 -3.390625l0 -7.71875zm4.1135254 9.0625l1.65625 -0.140625q0.125 1.0 0.546875 1.640625q0.4375 0.640625 1.34375 1.046875q0.921875 0.390625 2.0625 0.390625q1.0 0 1.78125 -0.296875q0.78125 -0.296875 1.15625 -0.8125q0.375 -0.53125 0.375 -1.15625q0 -0.625 -0.375 -1.09375q-0.359375 -0.46875 -1.1875 -0.796875q-0.546875 -0.203125 -2.390625 -0.640625q-1.828125 -0.453125 -2.5625 -0.84375q-0.96875 -0.5 -1.4375 -1.234375q-0.46875 -0.75 -0.46875 -1.671875q0 -1.0 0.578125 -1.875q0.578125 -0.890625 1.671875 -1.34375q1.109375 -0.453125 2.453125 -0.453125q1.484375 0 2.609375 0.484375q1.140625 0.46875 1.75 1.40625q0.609375 0.921875 0.65625 2.09375l-1.6875 0.125q-0.140625 -1.265625 -0.9375 -1.90625q-0.78125 -0.65625 -2.3125 -0.65625q-1.609375 0 -2.34375 0.59375q-0.734375 0.59375 -0.734375 1.421875q0 0.71875 0.53125 1.171875q0.5 0.46875 2.65625 0.96875q2.15625 0.484375 2.953125 0.84375q1.171875 0.53125 1.71875 1.359375q0.5625 0.828125 0.5625 1.90625q0 1.0625 -0.609375 2.015625q-0.609375 0.9375 -1.75 1.46875q-1.140625 0.515625 -2.578125 0.515625q-1.8125 0 -3.046875 -0.53125q-1.21875 -0.53125 -1.921875 -1.59375q-0.6875 -1.0625 -0.71875 -2.40625zm12.9592285 4.296875l0 -13.359375l5.015625 0q1.53125 0 2.453125 0.40625q0.921875 0.40625 1.4375 1.25q0.53125 0.84375 0.53125 1.765625q0 0.859375 -0.46875 1.625q-0.453125 0.75 -1.390625 1.203125q1.203125 0.359375 1.859375 1.21875q0.65625 0.859375 0.65625 2.015625q0 0.9375 -0.40625 1.75q-0.390625 0.796875 -0.984375 1.234375q-0.578125 0.4375 -1.453125 0.671875q-0.875 0.21875 -2.15625 0.21875l-5.09375 0zm1.78125 -7.75l2.875 0q1.1875 0 1.6875 -0.140625q0.671875 -0.203125 1.015625 -0.671875q0.34375 -0.46875 0.34375 -1.171875q0 -0.65625 -0.328125 -1.15625q-0.3125 -0.515625 -0.90625 -0.703125q-0.59375 -0.1875 -2.03125 -0.1875l-2.65625 0l0 4.03125zm0 6.171875l3.3125 0q0.859375 0 1.203125 -0.0625q0.609375 -0.109375 1.015625 -0.359375q0.421875 -0.265625 0.6875 -0.75q0.265625 -0.484375 0.265625 -1.125q0 -0.75 -0.390625 -1.296875q-0.375 -0.546875 -1.0625 -0.765625q-0.671875 -0.234375 -1.953125 -0.234375l-3.078125 0l0 4.59375zm19.298767 0.109375l0.234375 1.453125q-0.6875 0.140625 -1.234375 0.140625q-0.890625 0 -1.390625 -0.28125q-0.484375 -0.28125 -0.6875 -0.734375q-0.203125 -0.46875 -0.203125 -1.9375l0 -5.578125l-1.203125 0l0 -1.265625l1.203125 0l0 -2.390625l1.625 -0.984375l0 3.375l1.65625 0l0 1.265625l-1.65625 0l0 5.671875q0 0.6875 0.078125 0.890625q0.09375 0.203125 0.28125 0.328125q0.203125 0.109375 0.578125 0.109375q0.265625 0 0.71875 -0.0625zm0.9957886 -3.375q0 -2.6875 1.484375 -3.96875q1.25 -1.078125 3.046875 -1.078125q2.0 0 3.265625 1.3125q1.265625 1.296875 1.265625 3.609375q0 1.859375 -0.5625 2.9375q-0.5625 1.0625 -1.640625 1.65625q-1.0625 0.59375 -2.328125 0.59375q-2.03125 0 -3.28125 -1.296875q-1.25 -1.3125 -1.25 -3.765625zm1.6875 0q0 1.859375 0.796875 2.796875q0.8125 0.921875 2.046875 0.921875q1.21875 0 2.03125 -0.921875q0.8125 -0.9375 0.8125 -2.84375q0 -1.796875 -0.8125 -2.71875q-0.8125 -0.921875 -2.03125 -0.921875q-1.234375 0 -2.046875 0.921875q-0.796875 0.90625 -0.796875 2.765625zm17.753052 4.84375l0 -11.78125l-4.40625 0l0 -1.578125l10.578125 0l0 1.578125l-4.40625 0l0 11.78125l-1.765625 0zm11.395935 0l0 -11.78125l-4.40625 0l0 -1.578125l10.578125 0l0 1.578125l-4.40625 0l0 11.78125l-1.765625 0zm7.911621 0l0 -13.359375l1.78125 0l0 11.78125l6.5625 0l0 1.578125l-8.34375 0z" fill-rule="nonzero"/><path fill="#000000" fill-opacity="0.0" d="m681.3333 250.81364l0 80.03151" fill-rule="evenodd"/><path stroke="#000000" stroke-width="1.0" stroke-linejoin="round" stroke-linecap="butt" d="m681.3333 250.81364l0 80.03151" fill-rule="evenodd"/><path fill="#000000" fill-opacity="0.0" d="m697.3202 272.4462l56.346497 0l0 36.75589l-56.346497 0z" fill-rule="evenodd"/><path fill="#000000" d="m711.16394 299.36618l0 -11.78125l-4.40625 0l0 -1.578125l10.578125 0l0 1.578125l-4.40625 0l0 11.78125l-1.765625 0zm11.395996 0l0 -11.78125l-4.40625 0l0 -1.578125l10.578125 0l0 1.578125l-4.40625 0l0 11.78125l-1.765625 0zm7.911621 0l0 -13.359375l1.78125 0l0 11.78125l6.5625 0l0 1.578125l-8.34375 0z" fill-rule="nonzero"/><path fill="#000000" fill-opacity="0.0" d="m218.66667 464.34647l159.99998 0l0 58.33072l-159.99998 0z" fill-rule="evenodd"/><path stroke="#000000" stroke-width="1.0" stroke-linejoin="round" stroke-linecap="butt" d="m218.66667 464.34647l159.99998 0l0 58.33072l-159.99998 0z" fill-rule="evenodd"/><path fill="#000000" d="m278.85416 499.32242q-0.078125 2.75 -2.453125 2.75l-5.78125 0q-1.34375 0 -1.34375 -1.265625l0 -1.421875l-3.859375 0l0 1.265625l-1.265625 0l0 -7.265625l12.109375 0l0 6.0l-5.5 0l0 0.671875q0 0.59375 0.515625 0.59375l4.90625 0q0.96875 0 1.03125 -1.625l1.640625 0.296875zm-13.4375 -1.125l3.859375 0l0 -1.25l-3.859375 0l0 1.25zm0 -2.4375l3.859375 0l0 -1.1875l-3.859375 0l0 1.1875zm5.34375 2.4375l4.234375 0l0 -1.25l-4.234375 0l0 1.25zm0 -2.4375l4.234375 0l0 -1.1875l-4.234375 0l0 1.1875zm-6.234375 -5.203125l0 -0.890625l4.078125 0l0 0.890625l-4.078125 0zm4.078125 1.78125l-4.078125 0l0 -0.890625l4.078125 0l0 0.890625zm3.046875 0l0 -0.890625l4.3125 0l0 0.890625l-4.3125 0zm0 -1.78125l0 -0.890625l4.3125 0l0 0.890625l-4.3125 0zm5.125 -3.9375l-5.9375 0l0 1.1875l7.421875 0l0 3.5625l-1.484375 0l0 -2.671875l-5.9375 0l0 4.234375l-1.484375 0l0 -4.234375l-5.71875 0l0 2.96875l-1.484375 0l0 -3.859375l7.203125 0l0 -1.1875l-5.9375 0l0 -1.1875l13.359375 0l0 1.1875zm8.390625 9.4375q-1.34375 2.890625 -2.671875 5.1875q0.0625 0.671875 -0.296875 0.453125l-1.265625 -1.34375q1.625 -2.21875 3.046875 -5.265625l1.1875 0.96875zm9.796875 3.859375q0.59375 0 0.8125 -0.59375l0.4375 -1.34375l1.5625 0.59375l-0.375 1.1875q-0.515625 1.5625 -2.296875 1.5625l-6.53125 0q-1.5625 0 -1.5625 -1.265625l0 -6.90625l-1.40625 0.59375l-0.375 -1.546875l1.78125 -0.671875l0 -4.453125l1.421875 0q0.59375 0.078125 0.0625 0.4375l0 3.5l2.078125 -0.828125l0 -4.8125l1.421875 0q0.59375 0.0625 0.0625 0.4375l0 3.859375l2.90625 -1.265625l0.140625 -0.359375l1.484375 1.109375l-0.375 0.296875l0 6.015625q0 1.1875 -1.1875 1.1875l-1.1875 0l-0.21875 -1.421875l0.8125 0q0.296875 0 0.296875 -0.296875l0 -4.75l-2.671875 1.125l0 6.0l-1.484375 0l0 -5.484375l-2.078125 0.8125l0 6.6875q0 0.59375 0.53125 0.59375l5.9375 0zm-12.84375 -9.359375q1.03125 0.375 2.671875 1.640625l-0.96875 1.40625q-1.328125 -1.109375 -2.515625 -1.703125l0.8125 -1.34375zm0.8125 -4.375q1.34375 0.4375 2.75 1.5625l-0.96875 1.328125q-1.328125 -1.109375 -2.59375 -1.625l0.8125 -1.265625zm21.96875 14.46875q4.671875 -0.890625 5.046875 -2.96875l-4.671875 0l0 -1.1875l4.890625 0l0 -1.1875l-1.625 0l-1.640625 0l0 -5.9375l1.71875 0l0 -1.40625l-2.75 0l0 -1.1875l2.75 0l0 -1.859375l1.1875 0q0.59375 0.078125 0.0625 0.453125l0 1.40625l2.234375 0l0 -1.78125l1.1875 0q0.59375 0.078125 0.078125 0.4375l0 1.34375l2.890625 0l0 1.1875l-2.890625 0l0 1.40625l1.78125 0l0 5.9375l-3.5 0l0 1.1875l5.046875 0l0 1.1875l-4.75 0q0.96875 2.0 5.046875 2.828125l-0.65625 1.5625q-3.5625 -0.96875 -5.28125 -3.5q-1.1875 2.609375 -5.484375 3.5l-0.671875 -1.421875zm-1.1875 -12.171875l2.375 0l0 1.40625l-2.375 0l0 1.9375q1.109375 0.734375 2.53125 2.515625l-1.046875 1.34375q-0.671875 -1.046875 -1.484375 -2.234375l0 8.6875l-1.484375 0l0 -7.859375q-0.890625 2.078125 -1.78125 3.1875l-1.109375 -1.1875q2.515625 -3.640625 2.890625 -6.390625l-2.453125 0l0 -1.40625l2.453125 0l0 -3.5625l1.40625 0q0.59375 0.078125 0.078125 0.453125l0 3.109375zm4.453125 2.078125l0 1.1875l5.71875 0l0 -1.1875l-5.71875 0zm0 2.375l0 1.1875l5.71875 0l0 -1.1875l-5.71875 0zm3.9375 -4.96875l-2.234375 0l0 1.40625l2.234375 0l0 -1.40625zm13.5 0.4375q-1.484375 2.15625 -3.703125 4.453125l2.96875 -0.140625l-0.890625 -1.34375l1.1875 -0.65625q1.1875 1.40625 2.0 3.1875l-1.40625 0.671875l-0.375 -0.75l-1.921875 0.15625l0 8.015625l-1.484375 0l0 -7.875l-2.828125 0.21875q-0.078125 0.53125 -0.375 0.234375l-0.296875 -1.640625l1.640625 0q0.59375 -0.59375 1.328125 -1.40625q-1.1875 -1.046875 -2.59375 -2.078125l0.8125 -1.046875l0.53125 0.375q1.703125 -2.453125 2.21875 -3.78125l1.265625 0.734375q0.4375 0.296875 -0.15625 0.375q-0.8125 1.40625 -2.375 3.34375l1.1875 0.96875q1.125 -1.34375 2.15625 -3.203125l1.34375 0.828125q0.359375 0.296875 -0.234375 0.359375zm8.609375 11.515625l1.421875 0l0 1.40625l-9.796875 0l0 -1.40625l1.78125 0l0 -13.953125l6.59375 0l0 13.953125zm-1.484375 0l0 -4.015625l-3.625 0l0 4.015625l3.625 0zm0 -5.421875l0 -2.890625l-3.625 0l0 2.890625l3.625 0zm0 -4.3125l0 -2.8125l-3.625 0l0 2.8125l3.625 0zm-7.1875 5.125q0.953125 2.078125 1.1875 3.5625l-1.484375 0.453125q0 -1.125 -1.046875 -3.640625l1.34375 -0.375zm-4.234375 0.453125q0.515625 0.140625 -0.078125 0.4375q-0.375 2.296875 -1.265625 4.3125l-1.25 -0.75q0.8125 -1.625 1.1875 -4.234375l1.40625 0.234375z" fill-rule="nonzero"/><path fill="#000000" fill-opacity="0.0" d="m298.66666 389.16534l0 37.590576l0.06298828 0l0 37.590546" fill-rule="evenodd"/><path stroke="#000000" stroke-width="1.0" stroke-linejoin="round" stroke-linecap="butt" d="m298.66666 389.16534l0 37.590576l0.06298828 0l0 37.590546" fill-rule="evenodd"/><path fill="#000000" fill-opacity="0.0" d="m306.66666 408.37796l160.0 0l0 36.75589l-160.0 0z" fill-rule="evenodd"/><path fill="#000000" d="m317.05728 435.29794l0 -13.359375l2.65625 0l3.15625 9.453125q0.4375 1.328125 0.640625 1.984375q0.234375 -0.734375 0.703125 -2.140625l3.203125 -9.296875l2.375 0l0 13.359375l-1.703125 0l0 -11.171875l-3.875 11.171875l-1.59375 0l-3.859375 -11.375l0 11.375l-1.703125 0zm15.384552 -11.46875l0 -1.890625l1.640625 0l0 1.890625l-1.640625 0zm0 11.46875l0 -9.671875l1.640625 0l0 9.671875l-1.640625 0zm10.457336 -3.546875l1.609375 0.21875q-0.265625 1.65625 -1.359375 2.609375q-1.078125 0.9375 -2.671875 0.9375q-1.984375 0 -3.1875 -1.296875q-1.203125 -1.296875 -1.203125 -3.71875q0 -1.578125 0.515625 -2.75q0.515625 -1.171875 1.578125 -1.75q1.0625 -0.59375 2.3125 -0.59375q1.578125 0 2.578125 0.796875q1.0 0.796875 1.28125 2.265625l-1.59375 0.234375q-0.234375 -0.96875 -0.8125 -1.453125q-0.578125 -0.5 -1.390625 -0.5q-1.234375 0 -2.015625 0.890625q-0.78125 0.890625 -0.78125 2.8125q0 1.953125 0.75 2.84375q0.75 0.875 1.953125 0.875q0.96875 0 1.609375 -0.59375q0.65625 -0.59375 0.828125 -1.828125zm3.0 3.546875l0 -9.671875l1.46875 0l0 1.46875q0.5625 -1.03125 1.03125 -1.359375q0.484375 -0.328125 1.0625 -0.328125q0.828125 0 1.6875 0.53125l-0.5625 1.515625q-0.609375 -0.359375 -1.203125 -0.359375q-0.546875 0 -0.96875 0.328125q-0.421875 0.328125 -0.609375 0.890625q-0.28125 0.875 -0.28125 1.921875l0 5.0625l-1.625 0zm5.618927 -4.84375q0 -2.6875 1.484375 -3.96875q1.25 -1.078125 3.046875 -1.078125q2.0 0 3.265625 1.3125q1.265625 1.296875 1.265625 3.609375q0 1.859375 -0.5625 2.9375q-0.5625 1.0625 -1.640625 1.65625q-1.0625 0.59375 -2.328125 0.59375q-2.03125 0 -3.28125 -1.296875q-1.25 -1.3125 -1.25 -3.765625zm1.6875 0q0 1.859375 0.796875 2.796875q0.8125 0.921875 2.046875 0.921875q1.21875 0 2.03125 -0.921875q0.8125 -0.9375 0.8125 -2.84375q0 -1.796875 -0.8125 -2.71875q-0.8125 -0.921875 -2.03125 -0.921875q-1.234375 0 -2.046875 0.921875q-0.796875 0.90625 -0.796875 2.765625zm23.449646 -8.515625l1.765625 0l0 7.71875q0 2.015625 -0.453125 3.203125q-0.453125 1.1875 -1.640625 1.9375q-1.1875 0.734375 -3.125 0.734375q-1.875 0 -3.078125 -0.640625q-1.1875 -0.65625 -1.703125 -1.875q-0.5 -1.234375 -0.5 -3.359375l0 -7.71875l1.765625 0l0 7.71875q0 1.734375 0.3125 2.5625q0.328125 0.8125 1.109375 1.265625q0.796875 0.453125 1.9375 0.453125q1.953125 0 2.78125 -0.890625q0.828125 -0.890625 0.828125 -3.390625l0 -7.71875zm4.113556 9.0625l1.65625 -0.140625q0.125 1.0 0.546875 1.640625q0.4375 0.640625 1.34375 1.046875q0.921875 0.390625 2.0625 0.390625q1.0 0 1.78125 -0.296875q0.78125 -0.296875 1.15625 -0.8125q0.375 -0.53125 0.375 -1.15625q0 -0.625 -0.375 -1.09375q-0.359375 -0.46875 -1.1875 -0.796875q-0.546875 -0.203125 -2.390625 -0.640625q-1.828125 -0.453125 -2.5625 -0.84375q-0.96875 -0.5 -1.4375 -1.234375q-0.46875 -0.75 -0.46875 -1.671875q0 -1.0 0.578125 -1.875q0.578125 -0.890625 1.671875 -1.34375q1.109375 -0.453125 2.453125 -0.453125q1.484375 0 2.609375 0.484375q1.140625 0.46875 1.75 1.40625q0.609375 0.921875 0.65625 2.09375l-1.6875 0.125q-0.140625 -1.265625 -0.9375 -1.90625q-0.78125 -0.65625 -2.3125 -0.65625q-1.609375 0 -2.34375 0.59375q-0.734375 0.59375 -0.734375 1.421875q0 0.71875 0.53125 1.171875q0.5 0.46875 2.65625 0.96875q2.15625 0.484375 2.953125 0.84375q1.171875 0.53125 1.71875 1.359375q0.5625 0.828125 0.5625 1.90625q0 1.0625 -0.609375 2.015625q-0.609375 0.9375 -1.75 1.46875q-1.140625 0.515625 -2.578125 0.515625q-1.8125 0 -3.046875 -0.53125q-1.21875 -0.53125 -1.921875 -1.59375q-0.6875 -1.0625 -0.71875 -2.40625zm12.959198 4.296875l0 -13.359375l5.015625 0q1.53125 0 2.453125 0.40625q0.921875 0.40625 1.4375 1.25q0.53125 0.84375 0.53125 1.765625q0 0.859375 -0.46875 1.625q-0.453125 0.75 -1.390625 1.203125q1.203125 0.359375 1.859375 1.21875q0.65625 0.859375 0.65625 2.015625q0 0.9375 -0.40625 1.75q-0.390625 0.796875 -0.984375 1.234375q-0.578125 0.4375 -1.453125 0.671875q-0.875 0.21875 -2.15625 0.21875l-5.09375 0zm1.78125 -7.75l2.875 0q1.1875 0 1.6875 -0.140625q0.671875 -0.203125 1.015625 -0.671875q0.34375 -0.46875 0.34375 -1.171875q0 -0.65625 -0.328125 -1.15625q-0.3125 -0.515625 -0.90625 -0.703125q-0.59375 -0.1875 -2.03125 -0.1875l-2.65625 0l0 4.03125zm0 6.171875l3.3125 0q0.859375 0 1.203125 -0.0625q0.609375 -0.109375 1.015625 -0.359375q0.421875 -0.265625 0.6875 -0.75q0.265625 -0.484375 0.265625 -1.125q0 -0.75 -0.390625 -1.296875q-0.375 -0.546875 -1.0625 -0.765625q-0.671875 -0.234375 -1.953125 -0.234375l-3.078125 0l0 4.59375zm22.033142 -1.96875l1.609375 0.21875q-0.265625 1.65625 -1.359375 2.609375q-1.078125 0.9375 -2.671875 0.9375q-1.984375 0 -3.1875 -1.296875q-1.203125 -1.296875 -1.203125 -3.71875q0 -1.578125 0.515625 -2.75q0.515625 -1.171875 1.578125 -1.75q1.0625 -0.59375 2.3125 -0.59375q1.578125 0 2.578125 0.796875q1.0 0.796875 1.28125 2.265625l-1.59375 0.234375q-0.234375 -0.96875 -0.8125 -1.453125q-0.578125 -0.5 -1.390625 -0.5q-1.234375 0 -2.015625 0.890625q-0.78125 0.890625 -0.78125 2.8125q0 1.953125 0.75 2.84375q0.75 0.875 1.953125 0.875q0.96875 0 1.609375 -0.59375q0.65625 -0.59375 0.828125 -1.828125zm9.328125 2.359375q-0.921875 0.765625 -1.765625 1.09375q-0.828125 0.3125 -1.796875 0.3125q-1.59375 0 -2.453125 -0.78125q-0.859375 -0.78125 -0.859375 -1.984375q0 -0.71875 0.328125 -1.296875q0.328125 -0.59375 0.84375 -0.9375q0.53125 -0.359375 1.1875 -0.546875q0.46875 -0.125 1.453125 -0.25q1.984375 -0.234375 2.921875 -0.5625q0.015625 -0.34375 0.015625 -0.421875q0 -1.0 -0.46875 -1.421875q-0.625 -0.546875 -1.875 -0.546875q-1.15625 0 -1.703125 0.40625q-0.546875 0.40625 -0.8125 1.421875l-1.609375 -0.21875q0.21875 -1.015625 0.71875 -1.640625q0.5 -0.640625 1.453125 -0.984375q0.953125 -0.34375 2.1875 -0.34375q1.25 0 2.015625 0.296875q0.78125 0.28125 1.140625 0.734375q0.375 0.4375 0.515625 1.109375q0.078125 0.421875 0.078125 1.515625l0 2.1875q0 2.28125 0.109375 2.890625q0.109375 0.59375 0.40625 1.15625l-1.703125 0q-0.265625 -0.515625 -0.328125 -1.1875zm-0.140625 -3.671875q-0.890625 0.375 -2.671875 0.625q-1.015625 0.140625 -1.4375 0.328125q-0.421875 0.1875 -0.65625 0.53125q-0.21875 0.34375 -0.21875 0.78125q0 0.65625 0.5 1.09375q0.5 0.4375 1.453125 0.4375q0.9375 0 1.671875 -0.40625q0.75 -0.421875 1.09375 -1.140625q0.265625 -0.5625 0.265625 -1.640625l0 -0.609375zm5.703827 4.859375l-1.515625 0l0 -13.359375l1.640625 0l0 4.765625q1.046875 -1.296875 2.65625 -1.296875q0.890625 0 1.6875 0.359375q0.796875 0.359375 1.3125 1.015625q0.515625 0.640625 0.796875 1.5625q0.296875 0.921875 0.296875 1.96875q0 2.484375 -1.234375 3.84375q-1.21875 1.359375 -2.953125 1.359375q-1.703125 0 -2.6875 -1.4375l0 1.21875zm-0.015625 -4.90625q0 1.734375 0.484375 2.515625q0.765625 1.265625 2.09375 1.265625q1.078125 0 1.859375 -0.9375q0.78125 -0.9375 0.78125 -2.78125q0 -1.890625 -0.75 -2.796875q-0.75 -0.90625 -1.828125 -0.90625q-1.0625 0 -1.859375 0.9375q-0.78125 0.9375 -0.78125 2.703125zm8.844482 4.90625l0 -13.359375l1.640625 0l0 13.359375l-1.640625 0zm10.816681 -3.109375l1.6875 0.203125q-0.40625 1.484375 -1.484375 2.3125q-1.078125 0.8125 -2.765625 0.8125q-2.125 0 -3.375 -1.296875q-1.234375 -1.3125 -1.234375 -3.671875q0 -2.453125 1.25 -3.796875q1.265625 -1.34375 3.265625 -1.34375q1.9375 0 3.15625 1.328125q1.234375 1.3125 1.234375 3.703125q0 0.15625 0 0.4375l-7.21875 0q0.09375 1.59375 0.90625 2.453125q0.8125 0.84375 2.015625 0.84375q0.90625 0 1.546875 -0.46875q0.640625 -0.484375 1.015625 -1.515625zm-5.390625 -2.65625l5.40625 0q-0.109375 -1.21875 -0.625 -1.828125q-0.78125 -0.953125 -2.03125 -0.953125q-1.125 0 -1.90625 0.765625q-0.765625 0.75 -0.84375 2.015625z" fill-rule="nonzero"/><path fill="#000000" fill-opacity="0.0" d="m601.3438 360.0l-222.67715 0" fill-rule="evenodd"/><path stroke="#000000" stroke-width="1.0" stroke-linejoin="round" stroke-linecap="butt" d="m601.3438 360.0l-222.67715 0" fill-rule="evenodd"/><path fill="#000000" fill-opacity="0.0" d="m601.3333 221.6483l-111.33411 0l0 138.3622l-111.34305 0" fill-rule="evenodd"/><path stroke="#000000" stroke-width="1.0" stroke-linejoin="round" stroke-linecap="butt" d="m601.3333 221.6483l-111.33411 0l0 138.3622l-111.34305 0" fill-rule="evenodd"/></g></svg>