<svg version="1.1" viewBox="0.0 0.0 676.7244094488188 632.2992125984252" fill="none" stroke="none" stroke-linecap="square" stroke-miterlimit="10" xmlns:xlink="http://www.w3.org/1999/xlink" xmlns="http://www.w3.org/2000/svg"><clipPath id="p.0"><path d="m0 0l676.7244 0l0 632.2992l-676.7244 0l0 -632.2992z" clip-rule="nonzero"/></clipPath><g clip-path="url(#p.0)"><path fill="#000000" fill-opacity="0.0" d="m0 0l676.7244 0l0 632.2992l-676.7244 0z" fill-rule="evenodd"/><path fill="#000000" fill-opacity="0.0" d="m283.64224 23.396326l109.436676 0l0 0c14.336487 0 25.958496 12.669565 25.958496 28.298265c0 15.628704 -11.622009 28.298267 -25.958496 28.298267l-109.436676 0l0 0c-14.336487 0 -25.958527 -12.669563 -25.958527 -28.298267c0 -15.6287 11.62204 -28.298265 25.958527 -28.298265z" fill-rule="evenodd"/><path stroke="#000000" stroke-width="1.0" stroke-linejoin="round" stroke-linecap="butt" d="m283.64224 23.396326l109.436676 0l0 0c14.336487 0 25.958496 12.669565 25.958496 28.298265c0 15.628704 -11.622009 28.298267 -25.958496 28.298267l-109.436676 0l0 0c-14.336487 0 -25.958527 -12.669563 -25.958527 -28.298267c0 -15.6287 11.62204 -28.298265 25.958527 -28.298265z" fill-rule="evenodd"/><path fill="#000000" d="m329.8293 43.692715l6.96875 0l0 15.140625q0 1.1875 -1.1875 1.1875l-1.78125 0l-0.21875 -1.40625l1.40625 0q0.296875 0 0.296875 -0.296875l0 -8.46875l-2.734375 0l-2.75 0l0 -6.15625zm-6.15625 11.5l0 -1.1875l2.96875 0l0 -1.78125l-2.453125 0l0 -1.1875l9.34375 0l0 1.1875l-1.921875 0l0 1.78125l2.515625 0l0 1.1875l-2.515625 0l0 4.46875l-1.484375 0l0 -4.46875l-2.0 0q0.140625 3.265625 -3.34375 4.828125l-0.75 -1.40625q2.609375 -0.96875 2.609375 -3.421875l-2.96875 0zm2.671875 -10.3125l-3.71875 0l0 1.34375l3.71875 0l0 -1.34375zm1.484375 4.96875l-5.203125 0l0 10.40625l-1.484375 0l0 -16.5625l6.6875 0l0 6.15625zm2.296875 4.15625l0 -1.78125l-2.0 0l0 1.78125l2.0 0zm5.1875 -7.78125l0 -1.34375l-4.0 0l0 1.34375l4.0 0zm-4.0 2.4375l4.0 0l0 -1.25l-4.0 0l0 1.25zm-8.6875 0l3.71875 0l0 -1.25l-3.71875 0l0 1.25zm24.5625 2.453125q-0.359375 0.453125 -0.4375 0l-0.375 -1.5625l1.34375 0q0.8125 -2.375 1.703125 -6.234375l1.78125 0.53125q0.4375 0.359375 -0.296875 0.515625q-0.890625 2.671875 -1.78125 5.125l4.453125 -0.296875q-0.671875 -1.125 -1.5625 -2.3125l1.265625 -0.59375q1.703125 1.859375 3.046875 4.53125l-1.484375 0.75l-0.59375 -1.1875l-7.0625 0.734375zm-4.375 -2.671875q-0.375 2.375 -0.96875 4.609375q0.890625 0.59375 1.78125 1.1875q0.53125 -1.859375 0.828125 -5.796875l-1.640625 0zm2.0 6.609375q0.59375 0.4375 1.484375 1.1875l-0.8125 1.5625q-0.515625 -0.59375 -1.328125 -1.265625q-1.1875 1.921875 -3.5 3.421875l-0.953125 -1.1875q2.140625 -1.421875 3.328125 -3.203125q-0.8125 -0.59375 -1.625 -1.265625l-0.375 0.96875l-1.328125 -0.59375q1.109375 -2.75 1.703125 -6.234375l-1.78125 0l0 -1.40625l2.0 0q0.21875 -1.703125 0.453125 -3.484375l1.328125 0.296875q0.75 0.21875 0 0.515625q-0.140625 1.328125 -0.375 2.671875l1.71875 0l0.296875 -0.296875l1.109375 0.734375l-0.21875 0.296875q-0.296875 4.828125 -1.125 7.28125zm8.6875 4.15625l-4.671875 0l0 0.96875l-1.484375 0l0 -7.578125l7.640625 0l0 7.28125l-1.484375 0l0 -0.671875zm0 -1.40625l0 -3.796875l-4.671875 0l0 3.796875l4.671875 0z" fill-rule="nonzero"/><path fill="#000000" fill-opacity="0.0" d="m257.68372 112.49344l161.35434 0l0 56.59842l-161.35434 0z" fill-rule="evenodd"/><path stroke="#000000" stroke-width="1.0" stroke-linejoin="round" stroke-linecap="butt" d="m257.68372 112.49344l161.35434 0l0 56.59842l-161.35434 0z" fill-rule="evenodd"/><path fill="#000000" d="m272.77747 122.08765q0.65625 0.453125 -0.078125 0.453125q-1.34375 2.375 -3.859375 4.453125l-0.96875 -1.265625q2.671875 -2.0 3.640625 -4.3125l1.265625 0.671875zm0.4375 3.640625q0.671875 0.4375 -0.140625 0.4375q-0.53125 1.046875 -1.265625 2.234375l0 9.875l-1.484375 0l0 -7.953125q-0.671875 0.890625 -1.640625 1.78125l-0.953125 -1.40625q2.8125 -2.515625 4.21875 -5.5625l1.265625 0.59375zm10.25 6.75l-3.9375 0l0 3.640625l5.421875 0l-0.53125 1.40625l-4.078125 0q-2.96875 0 -5.125 -2.21875q-0.890625 1.703125 -1.84375 2.59375l-1.125 -1.109375q2.453125 -2.671875 2.75 -6.53125l1.40625 0.21875q0.59375 0.21875 0 0.4375q-0.296875 1.9375 -0.734375 3.125q1.03125 1.265625 2.375 1.703125l0 -6.375l1.40625 0q0.59375 0.0625 0.078125 0.4375l0 1.265625l3.9375 0l0 1.40625zm-1.71875 -10.46875q0.59375 0.234375 0 0.453125q-0.21875 1.03125 -0.59375 2.15625q1.859375 1.1875 3.34375 2.515625l-0.96875 1.40625q-1.328125 -1.546875 -2.890625 -2.59375q-0.734375 1.703125 -1.78125 3.046875l-1.328125 -0.890625q2.078125 -2.296875 2.734375 -6.390625l1.484375 0.296875zm-4.671875 0q0.75 0.15625 0 0.453125q-0.296875 1.1875 -0.734375 2.453125q0.890625 0.4375 2.0 1.1875l-0.8125 1.328125q-0.75 -0.671875 -1.71875 -1.328125q-0.734375 1.84375 -1.703125 3.1875l-1.265625 -0.890625q2.234375 -3.34375 2.75 -6.6875l1.484375 0.296875z" fill-rule="nonzero"/><path fill="#000000" d="m293.37122 131.47827l0 -1.578125l5.65625 0l0 4.953125q-1.296875 1.046875 -2.6875 1.578125q-1.375 0.515625 -2.84375 0.515625q-1.96875 0 -3.578125 -0.84375q-1.609375 -0.84375 -2.421875 -2.4375q-0.8125 -1.59375 -0.8125 -3.5625q0 -1.953125 0.8125 -3.640625q0.8125 -1.6875 2.34375 -2.5q1.53125 -0.828125 3.515625 -0.828125q1.453125 0 2.625 0.46875q1.171875 0.46875 1.828125 1.3125q0.671875 0.828125 1.015625 2.171875l-1.59375 0.4375q-0.296875 -1.015625 -0.75 -1.59375q-0.4375 -0.59375 -1.265625 -0.9375q-0.828125 -0.34375 -1.84375 -0.34375q-1.203125 0 -2.09375 0.375q-0.890625 0.359375 -1.4375 0.96875q-0.53125 0.59375 -0.828125 1.3125q-0.515625 1.234375 -0.515625 2.6875q0 1.78125 0.609375 2.984375q0.625 1.203125 1.796875 1.796875q1.171875 0.578125 2.5 0.578125q1.140625 0 2.234375 -0.4375q1.09375 -0.453125 1.65625 -0.953125l0 -2.484375l-3.921875 0zm8.245819 5.234375l0 -13.359375l1.8125 0l7.015625 10.484375l0 -10.484375l1.6875 0l0 13.359375l-1.8125 0l-7.015625 -10.5l0 10.5l-1.6875 0zm12.894806 -4.296875l1.65625 -0.140625q0.125 1.0 0.546875 1.640625q0.4375 0.640625 1.34375 1.046875q0.921875 0.390625 2.0625 0.390625q1.0 0 1.78125 -0.296875q0.78125 -0.296875 1.15625 -0.8125q0.375 -0.53125 0.375 -1.15625q0 -0.625 -0.375 -1.09375q-0.359375 -0.46875 -1.1875 -0.796875q-0.546875 -0.203125 -2.390625 -0.640625q-1.828125 -0.453125 -2.5625 -0.84375q-0.96875 -0.5 -1.4375 -1.234375q-0.46875 -0.75 -0.46875 -1.671875q0 -1.0 0.578125 -1.875q0.578125 -0.890625 1.671875 -1.34375q1.109375 -0.453125 2.453125 -0.453125q1.484375 0 2.609375 0.484375q1.140625 0.46875 1.75 1.40625q0.609375 0.921875 0.65625 2.09375l-1.6875 0.125q-0.140625 -1.265625 -0.9375 -1.90625q-0.78125 -0.65625 -2.3125 -0.65625q-1.609375 0 -2.34375 0.59375q-0.734375 0.59375 -0.734375 1.421875q0 0.71875 0.53125 1.171875q0.5 0.46875 2.65625 0.96875q2.15625 0.484375 2.953125 0.84375q1.171875 0.53125 1.71875 1.359375q0.5625 0.828125 0.5625 1.90625q0 1.0625 -0.609375 2.015625q-0.609375 0.9375 -1.75 1.46875q-1.140625 0.515625 -2.578125 0.515625q-1.8125 0 -3.046875 -0.53125q-1.21875 -0.53125 -1.921875 -1.59375q-0.6875 -1.0625 -0.71875 -2.40625zm12.443573 0l1.65625 -0.140625q0.125 1.0 0.546875 1.640625q0.4375 0.640625 1.34375 1.046875q0.921875 0.390625 2.0625 0.390625q1.0 0 1.78125 -0.296875q0.78125 -0.296875 1.15625 -0.8125q0.375 -0.53125 0.375 -1.15625q0 -0.625 -0.375 -1.09375q-0.359375 -0.46875 -1.1875 -0.796875q-0.546875 -0.203125 -2.390625 -0.640625q-1.828125 -0.453125 -2.5625 -0.84375q-0.96875 -0.5 -1.4375 -1.234375q-0.46875 -0.75 -0.46875 -1.671875q0 -1.0 0.578125 -1.875q0.578125 -0.890625 1.671875 -1.34375q1.109375 -0.453125 2.453125 -0.453125q1.484375 0 2.609375 0.484375q1.140625 0.46875 1.75 1.40625q0.609375 0.921875 0.65625 2.09375l-1.6875 0.125q-0.140625 -1.265625 -0.9375 -1.90625q-0.78125 -0.65625 -2.3125 -0.65625q-1.609375 0 -2.34375 0.59375q-0.734375 0.59375 -0.734375 1.421875q0 0.71875 0.53125 1.171875q0.5 0.46875 2.65625 0.96875q2.15625 0.484375 2.953125 0.84375q1.171875 0.53125 1.71875 1.359375q0.5625 0.828125 0.5625 1.90625q0 1.0625 -0.609375 2.015625q-0.609375 0.9375 -1.75 1.46875q-1.140625 0.515625 -2.578125 0.515625q-1.8125 0 -3.046875 -0.53125q-1.21875 -0.53125 -1.921875 -1.59375q-0.6875 -1.0625 -0.71875 -2.40625z" fill-rule="nonzero"/><path fill="#000000" d="m344.7896 136.9314q4.671875 -0.890625 5.046875 -2.96875l-4.671875 0l0 -1.1875l4.890625 0l0 -1.1875l-1.625 0l-1.640625 0l0 -5.9375l1.71875 0l0 -1.40625l-2.75 0l0 -1.1875l2.75 0l0 -1.859375l1.1875 0q0.59375 0.078125 0.0625 0.453125l0 1.40625l2.234375 0l0 -1.78125l1.1875 0q0.59375 0.078125 0.078125 0.4375l0 1.34375l2.890625 0l0 1.1875l-2.890625 0l0 1.40625l1.78125 0l0 5.9375l-3.5 0l0 1.1875l5.046875 0l0 1.1875l-4.75 0q0.96875 2.0 5.046875 2.828125l-0.65625 1.5625q-3.5625 -0.96875 -5.28125 -3.5q-1.1875 2.609375 -5.484375 3.5l-0.671875 -1.421875zm-1.1875 -12.171875l2.375 0l0 1.40625l-2.375 0l0 1.9375q1.109375 0.734375 2.53125 2.515625l-1.046875 1.34375q-0.671875 -1.046875 -1.484375 -2.234375l0 8.6875l-1.484375 0l0 -7.859375q-0.890625 2.078125 -1.78125 3.1875l-1.109375 -1.1875q2.515625 -3.640625 2.890625 -6.390625l-2.453125 0l0 -1.40625l2.453125 0l0 -3.5625l1.40625 0q0.59375 0.078125 0.078125 0.453125l0 3.109375zm4.453125 2.078125l0 1.1875l5.71875 0l0 -1.1875l-5.71875 0zm0 2.375l0 1.1875l5.71875 0l0 -1.1875l-5.71875 0zm3.9375 -4.96875l-2.234375 0l0 1.40625l2.234375 0l0 -1.40625zm13.5 0.4375q-1.484375 2.15625 -3.703125 4.453125l2.96875 -0.140625l-0.890625 -1.34375l1.1875 -0.65625q1.1875 1.40625 2.0 3.1875l-1.40625 0.671875l-0.375 -0.75l-1.921875 0.15625l0 8.015625l-1.484375 0l0 -7.875l-2.828125 0.21875q-0.078125 0.53125 -0.375 0.234375l-0.296875 -1.640625l1.640625 0q0.59375 -0.59375 1.328125 -1.40625q-1.1875 -1.046875 -2.59375 -2.078125l0.8125 -1.046875l0.53125 0.375q1.703125 -2.453125 2.21875 -3.78125l1.265625 0.734375q0.4375 0.296875 -0.15625 0.375q-0.8125 1.40625 -2.375 3.34375l1.1875 0.96875q1.125 -1.34375 2.15625 -3.203125l1.34375 0.828125q0.359375 0.296875 -0.234375 0.359375zm8.609375 11.515625l1.421875 0l0 1.40625l-9.796875 0l0 -1.40625l1.78125 0l0 -13.953125l6.59375 0l0 13.953125zm-1.484375 0l0 -4.015625l-3.625 0l0 4.015625l3.625 0zm0 -5.421875l0 -2.890625l-3.625 0l0 2.890625l3.625 0zm0 -4.3125l0 -2.8125l-3.625 0l0 2.8125l3.625 0zm-7.1875 5.125q0.953125 2.078125 1.1875 3.5625l-1.484375 0.453125q0 -1.125 -1.046875 -3.640625l1.34375 -0.375zm-4.234375 0.453125q0.515625 0.140625 -0.078125 0.4375q-0.375 2.296875 -1.265625 4.3125l-1.25 -0.75q0.8125 -1.625 1.1875 -4.234375l1.40625 0.234375zm32.65625 6.609375q-2.296875 -0.453125 -4.15625 -1.640625l0.96875 -0.890625q1.484375 0.8125 3.859375 1.40625l-0.671875 1.125zm-0.515625 -8.6875l0 5.9375l-8.84375 0l0 -5.9375l8.84375 0zm-8.390625 -2.609375l0.515625 0q1.5625 0 1.5625 -1.03125l-2.078125 0l0 1.03125zm0 0.75l0 0.4375l7.9375 0l0 -0.59375l-2.59375 0q-0.8125 0 -0.8125 -0.890625l0 -0.734375l-1.421875 0q0 1.78125 -2.4375 1.78125l-0.671875 0zm-1.5625 9.125q2.234375 -0.515625 3.640625 -1.1875l0.8125 0.75q0.59375 0.515625 -0.21875 0.375q-2.296875 0.890625 -3.640625 1.1875l-0.59375 -1.125zm-1.703125 -3.78125l-2.15625 0l0 2.671875l2.15625 0l0 -2.671875zm0.96875 -2.53125l-4.15625 0l0 -1.40625l4.15625 0l0 1.40625zm-3.125 6.390625l0 0.96875l-1.265625 0l0 -6.015625l4.6875 0l0 5.71875l-1.265625 0l0 -0.671875l-2.15625 0zm3.125 -8.984375l-4.15625 0l0 -1.40625l4.15625 0l0 1.40625zm0.4375 -2.59375l-5.5625 0l0 -1.40625l5.5625 0l0 1.40625zm-0.4375 -2.53125l-4.15625 0l0 -1.40625l4.15625 0l0 1.40625zm5.40625 0.671875l0 -0.671875l-4.296875 0l0 -0.890625l4.296875 0l0 -1.109375l1.421875 0q0.59375 0.078125 0.0625 0.453125l0 0.65625l4.609375 0l0 0.890625l-4.609375 0l0 0.671875l3.640625 0l0 0.890625l-8.53125 0l0 -0.890625l3.40625 0zm6.09375 1.5625l0 4.0l-10.46875 0l0 -4.0l10.46875 0zm-8.390625 5.421875l0 0.734375l6.3125 0l0 -0.734375l-6.3125 0zm0 1.625l0 0.8125l6.3125 0l0 -0.8125l-6.3125 0zm0 1.703125l0 0.828125l6.3125 0l0 -0.828125l-6.3125 0zm4.75 -7.421875q0 0.296875 0.296875 0.296875l2.078125 0l0 -0.734375l-2.375 0l0 0.4375z" fill-rule="nonzero"/><path fill="#000000" d="m269.57434 145.72827l-1.484375 0l0 -1.421875l9.578125 0l0 1.421875l-2.21875 0l0 14.390625l-1.484375 0l0 -3.78125q-3.125 1.109375 -5.28125 1.625q-0.359375 0.53125 -0.4375 0.234375l-0.453125 -1.859375q0.890625 -0.15625 1.78125 -0.296875l0 -10.3125zm6.390625 12.90625q2.296875 -1.5625 3.5625 -3.265625q-1.859375 -2.75 -2.375 -7.34375l-0.890625 0l0 -1.40625l6.375 0l0.296875 -0.375l1.265625 1.1875l-0.375 0.21875q-0.515625 4.53125 -2.375 7.796875q1.1875 1.5625 3.125 2.75l-0.890625 1.5625q-1.9375 -1.5 -3.1875 -3.046875q-1.484375 1.703125 -3.5 3.34375l-1.03125 -1.421875zm4.453125 -4.53125q1.1875 -1.78125 1.78125 -6.078125l-3.640625 0q0.375 3.484375 1.859375 6.078125zm-9.359375 -8.375l0 2.515625l2.90625 0l0 -2.515625l-2.90625 0zm0 3.703125l0 2.453125l2.90625 0l0 -2.453125l-2.90625 0zm0 3.640625l0 2.671875q1.421875 -0.296875 2.90625 -0.8125l0 -1.859375l-2.90625 0zm18.9375 -4.453125l2.296875 -3.34375l1.265625 0.671875q0.59375 0.296875 -0.234375 0.4375l-3.625 4.828125l2.515625 -0.140625l-0.8125 -1.484375l1.03125 -0.53125q1.34375 1.859375 1.78125 3.34375l-1.25 0.59375l-0.296875 -0.8125l-1.640625 0.140625l0 8.03125l-1.484375 0l0 -7.875l-2.0 0.140625q-0.671875 0.671875 -0.75 -0.0625l-0.140625 -1.34375l1.40625 0l1.109375 -1.484375l-2.59375 -2.078125l0.890625 -1.109375l0.453125 0.375l2.21875 -3.71875l1.265625 0.59375q0.59375 0.375 -0.21875 0.515625l-2.234375 3.421875l1.046875 0.890625zm-1.1875 5.484375q0.59375 0.15625 0 0.453125q-0.234375 2.15625 -0.75 4.53125l-1.5625 -0.453125q0.59375 -2.0 0.890625 -4.828125l1.421875 0.296875zm3.859375 -0.359375q0.8125 1.921875 1.1875 3.625l-1.34375 0.296875q-0.375 -1.484375 -1.109375 -3.625l1.265625 -0.296875zm8.609375 -4.390625q1.1875 1.125 2.140625 2.609375l-1.328125 0.734375q-0.96875 -1.859375 -2.375 -3.1875q1.03125 -1.640625 1.78125 -3.78125l1.265625 0.359375q0.65625 0.234375 -0.078125 0.53125q-0.59375 1.40625 -1.40625 2.734375zm-4.609375 0q1.046875 -1.546875 1.703125 -3.484375l1.421875 0.296875q0.515625 0.21875 -0.15625 0.453125q-0.4375 1.1875 -1.5625 2.734375q0.96875 0.96875 2.078125 2.53125l-1.40625 0.8125q-0.734375 -1.703125 -2.078125 -3.34375zm6.09375 4.015625l0 1.40625l-3.640625 0l0 3.484375l4.453125 0l0 1.421875l-10.390625 0l0 -1.421875l4.453125 0l0 -3.484375l-3.1875 0l0 -1.40625l8.3125 0zm-8.84375 -8.015625l0 -1.40625l9.5 0l0 1.40625l-9.5 0zm2.828125 0.8125q0.671875 0.15625 -0.078125 0.453125q-0.515625 1.1875 -1.40625 2.59375q0.8125 1.03125 1.921875 2.890625l-1.40625 0.75q-0.734375 -1.71875 -2.0 -3.5q1.109375 -1.921875 1.5625 -3.5625l1.40625 0.375zm13.5 -1.78125q-0.59375 1.046875 -1.921875 3.265625l0.890625 0.75q0.890625 -1.421875 1.78125 -2.828125l1.1875 0.75q0.375 0.21875 -0.078125 0.296875q-0.8125 1.1875 -3.1875 4.671875q1.265625 -0.078125 2.515625 -0.15625q-0.296875 -0.59375 -0.59375 -1.25l1.125 -0.53125q0.890625 1.1875 1.546875 3.046875l-1.40625 0.59375q-0.140625 -0.375 -0.21875 -0.734375q-0.75 0.0625 -1.640625 0.21875l0 7.875l-1.484375 0l0 -7.734375q-1.328125 0.078125 -2.515625 0.15625q-0.21875 0.375 -0.375 0.140625l-0.21875 -1.546875q0.8125 0 1.625 0q0.671875 -0.96875 1.34375 -1.9375l-2.828125 -2.078125l0.828125 -1.03125l0.65625 0.59375q0.96875 -1.78125 1.9375 -3.640625l1.1875 0.734375q0.375 0.234375 -0.15625 0.375zm2.828125 12.6875l-1.40625 0.296875q-0.15625 -1.703125 -0.59375 -3.40625l1.328125 -0.296875q0.59375 1.703125 0.671875 2.75l1.921875 0l0 -1.484375l-1.25 0l0 -1.1875l4.515625 0l0 -1.125l-2.0 0l-1.921875 0l0 -3.328125l6.890625 0l0 3.328125l-1.703125 0l0 1.125l2.375 0l0 1.1875l-2.375 0l0 1.484375l3.34375 0l0 1.1875l-3.34375 0l0 2.75l-1.265625 0l0 -2.75l-5.1875 0l0 -0.53125zm2.515625 -5.34375l4.390625 0l0 -1.546875l-4.390625 0l0 1.546875zm-7.78125 2.90625q0 1.546875 -0.59375 4.0l-1.421875 -0.671875q0.59375 -2.140625 0.671875 -4.0l1.40625 0.296875q0.375 0.140625 -0.0625 0.375zm8.453125 1.78125l2.0 0l0 -1.484375l-2.0 0l0 1.484375zm-3.5625 -9.203125l3.265625 0l0.21875 -1.265625l-2.4375 0l0 -1.1875l2.59375 0l0.140625 -1.484375l1.421875 0.140625q0.359375 0.15625 -0.078125 0.375l-0.15625 0.96875l3.203125 0l-0.15625 2.453125l2.078125 0l0 1.1875l-10.09375 0l0 -1.1875zm4.828125 -1.265625l-0.21875 1.265625l2.078125 0l0.140625 -1.265625l-2.0 0zm23.53125 14.46875q-3.5625 -0.4375 -6.3125 -1.859375q-2.59375 1.5625 -6.234375 1.9375l-0.59375 -1.5625q3.34375 -0.296875 5.5625 -1.40625q-1.1875 -1.1875 -2.15625 -2.53125l-2.078125 0l0 -1.1875l8.6875 0l0.21875 -0.21875l1.125 0.890625q0.296875 0.453125 -0.296875 0.375q-1.265625 1.484375 -3.046875 2.75q2.59375 0.890625 5.484375 1.109375l-0.359375 1.703125zm-6.765625 -15.140625l6.6875 0l0 1.40625l-13.140625 0l0 6.53125q0 4.15625 -1.859375 6.984375l-1.328125 -1.109375q1.703125 -2.3125 1.703125 -6.171875l0 -7.640625l6.234375 0l0 -1.921875l1.640625 0q0.59375 0.0625 0.0625 0.4375l0 1.484375zm0.453125 11.5q0.890625 -0.59375 2.078125 -1.78125l-3.859375 0q0.734375 0.890625 1.78125 1.78125zm2.671875 -4.0l-1.484375 0l0 -0.453125l-3.1875 0l0 0.53125l-1.484375 0l0 -2.96875l-2.96875 0l0 -1.1875l2.96875 0l0 -1.421875l1.40625 0q0.59375 0.078125 0.078125 0.453125l0 0.96875l3.1875 0l0 -1.5625l1.40625 0q0.59375 0.078125 0.078125 0.4375l0 1.125l3.5625 0l0 1.1875l-3.5625 0l0 2.890625zm-1.484375 -2.890625l-3.1875 0l0 1.25l3.1875 0l0 -1.25z" fill-rule="nonzero"/><path fill="#000000" fill-opacity="0.0" d="m257.68372 201.59317l161.35434 0l0 56.59842l-161.35434 0z" fill-rule="evenodd"/><path stroke="#000000" stroke-width="1.0" stroke-linejoin="round" stroke-linecap="butt" d="m257.68372 201.59317l161.35434 0l0 56.59842l-161.35434 0z" fill-rule="evenodd"/><path fill="#000000" d="m267.13684 218.3124q2.890625 -3.484375 3.484375 -7.796875l1.40625 0.234375q0.75 0.140625 0 0.65625q-0.515625 2.078125 -1.1875 3.796875q0.8125 0.4375 0.21875 0.65625l0 11.734375l-1.484375 0l0 -9.953125q-0.734375 1.1875 -1.40625 1.9375l-1.03125 -1.265625zm6.234375 1.34375l0 -5.71875l3.859375 0l0 -0.75l-4.90625 0l0 -1.1875l4.90625 0l0 -1.546875l1.40625 0q0.59375 0.0625 0.078125 0.4375l0 1.109375l5.484375 0l0 1.1875l-5.484375 0l0 0.75l4.078125 0l0 5.421875l-1.109375 0q1.1875 0.8125 2.4375 1.84375l-1.03125 0.75l-0.890625 -0.75l-1.046875 0.078125l0 1.34375l3.640625 0l0 1.1875l-3.640625 0l0 2.375q0 1.328125 -1.109375 1.328125l-1.625 0l-0.296875 -1.40625l1.328125 0q0.21875 0 0.21875 -0.21875l0 -2.078125l-4.21875 0q0.890625 0.734375 1.703125 1.84375l-1.265625 0.96875q-0.734375 -0.96875 -1.78125 -1.921875l1.046875 -0.890625l-3.34375 0l0 -1.1875l7.859375 0l0 -1.265625l-6.453125 0.296875q-0.515625 0.671875 -0.671875 -0.078125l-0.21875 -1.1875l4.90625 0l0 -1.03125l-2.609375 0l0 0.296875l-1.25 0zm5.34375 -4.53125l0 0.890625l2.8125 0l0 -0.890625l-2.8125 0zm-4.09375 0l0 0.890625l2.609375 0l0 -0.890625l-2.609375 0zm4.09375 2.078125l0 0.96875l2.8125 0l0 -0.96875l-2.8125 0zm0 2.15625l0 0.953125l2.4375 0l-0.8125 -0.59375l0.8125 -0.359375l-2.4375 0zm-1.484375 -2.15625l-2.609375 0l0 0.96875l2.609375 0l0 -0.96875zm12.6875 -2.53125q-0.96875 -1.484375 -2.234375 -2.4375l1.1875 -1.125q1.640625 1.1875 2.234375 2.375l-1.1875 1.1875zm-3.34375 11.140625l2.53125 -1.484375l0 -4.96875l-2.375 0l0 -1.421875l3.859375 0l0 6.015625q1.703125 1.703125 4.0 1.703125l9.203125 0l-0.375 1.421875l-9.046875 0q-2.453125 0 -4.53125 -2.015625l-2.453125 2.453125l-0.8125 -1.703125zm16.25 -6.53125l-5.046875 0l-0.0625 0.671875q2.96875 1.328125 4.8125 3.03125l-1.03125 1.640625q-2.453125 -2.53125 -4.3125 -3.34375q-1.03125 1.9375 -4.21875 3.78125l-0.890625 -1.546875q3.859375 -1.9375 4.21875 -4.234375l-4.671875 0l0 -1.40625l4.75 0l0 -2.453125l-4.15625 0l0 -1.40625l2.59375 0q-0.8125 -1.421875 -1.921875 -2.453125l1.328125 -0.890625q1.046875 0.96875 1.9375 2.453125l-1.1875 0.890625l2.515625 0l1.78125 -3.71875l1.640625 0.75q0.296875 0.296875 -0.21875 0.359375l-1.71875 2.609375l3.265625 0l0 1.40625l-4.375 0l0 2.453125l4.96875 0l0 1.40625zm7.65625 1.109375q-0.828125 -0.890625 -1.125 -1.1875l0 8.3125l-1.25 0l0 -8.09375q-0.671875 2.078125 -1.859375 3.5l-0.890625 -1.421875q1.703125 -2.4375 2.671875 -6.0l-2.078125 0l0 -1.421875l2.15625 0l0 -3.5625l1.1875 0q0.59375 0.078125 0.0625 0.453125l0 3.109375l1.71875 0l0 1.421875l-1.71875 0l0 2.078125q1.34375 0.734375 1.9375 1.484375l-0.8125 1.328125zm6.828125 -3.9375q0 1.78125 0.140625 3.34375l2.0 0q-0.140625 -0.59375 -0.515625 -1.109375l1.40625 -0.375q0.53125 0.75 0.75 1.484375l1.5625 0l0 1.1875l-5.125 0q0.21875 1.484375 0.734375 2.59375q0.96875 -0.890625 1.78125 -2.296875l1.265625 0.671875q0.453125 0.296875 -0.21875 0.4375q-0.96875 1.484375 -1.859375 2.3125q1.046875 1.03125 1.703125 1.03125q0.453125 0 0.671875 -1.5625l1.265625 0.75q-0.21875 1.78125 -1.046875 2.296875q-1.25 0.828125 -3.703125 -1.625q-1.5625 1.1875 -3.71875 1.859375l-0.65625 -1.421875q1.921875 -0.515625 3.484375 -1.625q-0.8125 -1.640625 -0.96875 -3.421875l-2.75 0l0 1.109375q1.34375 0.453125 2.53125 1.34375l-0.890625 1.328125q-0.59375 -0.515625 -1.640625 -1.25q-0.359375 2.515625 -2.375 4.0l-1.1875 -1.1875q2.15625 -1.265625 2.078125 -4.078125l0 -1.265625l-0.8125 0l0 -1.1875l4.96875 0q-0.0625 -0.734375 -0.0625 -1.265625l-1.046875 0.375l-0.140625 -0.734375l-3.046875 0.4375q-0.15625 0.515625 -0.296875 0.21875l-0.453125 -1.40625l0.75 0l0.890625 -1.5625l-1.5625 -1.109375l0.59375 -0.96875l0.21875 0.15625l1.421875 -3.046875l1.109375 0.75q0.296875 0.296875 -0.15625 0.296875l-1.546875 2.515625l0.515625 0.375l1.1875 -2.0l0.96875 0.65625q0.296875 0.296875 -0.15625 0.296875l-2.296875 3.5625l1.5625 -0.140625l-0.453125 -1.1875l0.890625 -0.375q0.59375 0.890625 0.96875 2.375l0 -7.34375l1.1875 0q0.59375 0.078125 0.078125 0.4375l0 5.34375zm4.078125 1.1875l-3.046875 0.59375q-0.140625 0.53125 -0.296875 0.234375l-0.4375 -1.34375l0.65625 -0.078125l0.890625 -1.328125l-1.78125 -1.34375l0.59375 -0.890625l0.296875 0.234375l1.484375 -2.828125l1.046875 0.671875q0.296875 0.296875 -0.15625 0.296875l-1.484375 2.296875l0.671875 0.453125l1.1875 -1.859375l0.96875 0.515625q0.296875 0.296875 -0.15625 0.296875l-2.375 3.421875l1.640625 -0.234375l-0.453125 -1.03125l0.96875 -0.21875q0.75 1.109375 1.109375 2.59375l-1.109375 0.375l-0.21875 -0.828125zm12.3125 -2.140625q0.59375 0.140625 0 0.4375q-0.140625 0.671875 -0.359375 1.265625l7.859375 0l0 1.40625l-5.640625 0q2.59375 1.78125 6.390625 2.453125l-0.375 1.5625q-1.484375 -0.296875 -2.078125 -0.59375l0 5.046875l-1.484375 0l0 -0.8125l-2.59375 0l0 1.03125l-1.484375 0l0 -5.9375l3.859375 0q-2.15625 -0.890625 -3.9375 -2.75l-1.1875 0q-1.1875 1.703125 -3.1875 2.75l2.96875 0l0 5.796875l-1.484375 0l0 -0.890625l-2.53125 0l0 1.109375l-1.484375 0l0 -4.90625q-0.671875 0.375 -2.0 0.671875l-0.515625 -1.5625q4.0 -0.59375 6.53125 -2.96875l-5.796875 0l0 -1.40625l6.6875 0q0.4375 -0.8125 0.59375 -1.78125l1.25 0.078125zm-1.484375 0.359375l-1.484375 0l0 -0.359375l-2.890625 0l0 0.65625l-1.484375 0l0 -5.1875l5.859375 0l0 4.890625zm1.859375 -4.890625l5.9375 0l0 4.890625l-1.484375 0l0 -0.359375l-2.96875 0l0 0.65625l-1.484375 0l0 -5.1875zm3.9375 14.09375l0 -2.515625l-2.59375 0l0 2.515625l2.59375 0zm-7.28125 -10.75l0 -2.15625l-2.890625 0l0 2.15625l2.890625 0zm7.796875 -2.15625l-2.96875 0l0 2.15625l2.96875 0l0 -2.15625zm-7.5625 12.90625l0 -2.515625l-2.53125 0l0 2.515625l2.53125 0zm20.1875 -13.875l1.625 0q0.75 0.15625 0.078125 0.59375l0 3.046875q0.515625 7.125 7.5625 10.171875l-0.890625 1.859375q-5.109375 -2.234375 -7.265625 -8.09375q-1.5625 5.5625 -7.046875 8.09375l-1.125 -1.640625q7.0625 -2.75 7.0625 -10.171875l0 -3.859375zm21.140625 1.046875l6.765625 0l0 1.40625l-13.515625 0l0 7.859375q0 2.90625 -1.703125 5.71875l-1.484375 -1.109375q1.703125 -2.59375 1.703125 -5.71875l0 -8.15625l6.53125 0l0 -1.859375l1.640625 0q0.734375 0.140625 0.0625 0.59375l0 1.265625zm0.671875 7.640625q2.0 -2.453125 2.296875 -5.5l1.484375 0.296875q0.453125 0.15625 0 0.375q-0.21875 1.046875 -0.4375 1.78125q1.859375 0.890625 2.890625 1.9375l-0.96875 1.484375q-1.1875 -1.1875 -2.375 -2.15625q-0.734375 1.703125 -1.703125 2.75l-1.1875 -0.890625l0 1.40625l5.125 0l0 1.40625l-5.125 0l0 2.59375l6.53125 0l0 1.421875l-13.953125 0l0 -1.421875l5.9375 0l0 -2.59375l-4.53125 0l0 -1.40625l4.53125 0l0 -2.453125l-0.96875 1.40625q-1.03125 -1.03125 -1.921875 -1.703125q-0.671875 1.40625 -1.640625 2.453125l-1.1875 -1.109375q2.078125 -2.078125 2.3125 -5.34375l1.484375 0.296875q0.4375 0.140625 0 0.359375q-0.234375 1.421875 -0.453125 2.078125q0.890625 0.234375 2.375 1.421875l0 -4.609375l1.40625 0q0.59375 0.078125 0.078125 0.453125l0 5.265625zm18.1875 4.375q0.296875 0.296875 -0.296875 0.296875q-1.484375 1.484375 -3.046875 2.453125l-0.96875 -1.34375q1.9375 -1.03125 3.125 -2.4375l1.1875 1.03125zm2.8125 1.859375q0 1.1875 -1.1875 1.1875l-0.953125 0l-0.375 -1.40625l0.734375 0q0.296875 0 0.296875 -0.296875l0 -2.828125l-5.046875 0l0 -1.40625l11.21875 0l0 1.40625l-4.6875 0l0 3.34375zm1.484375 -2.828125q1.640625 1.34375 3.125 2.078125l-0.8125 1.34375q-1.484375 -0.671875 -3.265625 -2.453125l0.953125 -0.96875zm-14.25 -1.328125q2.671875 -3.125 3.046875 -6.09375l-2.453125 0l0 -1.40625l2.453125 0l0 -3.859375l1.40625 0q0.59375 0.078125 0.078125 0.453125l0 3.40625l2.0 0l0 1.40625l-2.0 0l0 1.859375q1.109375 0.59375 2.15625 1.703125l-0.8125 1.421875q-0.671875 -0.75 -1.34375 -1.265625l0 8.015625l-1.484375 0l0 -7.421875q-0.671875 1.625 -2.078125 3.046875l-0.96875 -1.265625zm16.03125 -1.5625l-8.375 0l0 -1.40625l8.375 0l0 1.40625zm-6.15625 -3.640625l0 -1.921875l-1.484375 0l0 1.921875l1.484375 0zm2.75 0l0 -1.921875l-1.484375 0l0 1.921875l1.484375 0zm1.265625 0l1.484375 0l0 -1.921875l-1.484375 0l0 1.921875zm2.734375 -3.109375l0 4.296875l-9.5 0l0 -4.296875l2.75 0l0 -1.046875l-3.1875 0l0 -1.40625l10.390625 0l0 1.40625l-3.1875 0l0 1.046875l2.734375 0zm-5.484375 0l1.484375 0l0 -1.046875l-1.484375 0l0 1.046875z" fill-rule="nonzero"/><path fill="#000000" d="m283.82434 233.10927q0.59375 0.078125 0.078125 0.453125l0 14.46875q0 1.1875 -1.1875 1.1875l-1.484375 0l-0.21875 -1.40625l1.109375 0q0.296875 0 0.296875 -0.296875l0 -14.40625l1.40625 0zm-4.890625 12.46875l0 -10.75l1.40625 0q0.59375 0.0625 0.078125 0.4375l0 10.3125l-1.484375 0zm-10.25 -2.96875l3.421875 0l0 -2.140625l1.40625 0q0.59375 0.0625 0.078125 0.4375l0 1.703125l3.484375 0l0 1.421875l-3.484375 0l0 2.59375l4.0 -0.59375l0.234375 1.265625l-8.90625 1.625q-0.078125 0.53125 -0.375 0.234375l-0.59375 -1.796875l4.15625 -0.515625l0 -2.8125l-3.421875 0l0 -1.421875zm0.234375 -2.375q-0.078125 0.53125 -0.375 0.234375l-0.453125 -1.78125l1.9375 -0.078125l1.40625 -3.71875l-3.265625 0l0 -1.40625l9.359375 0l0 1.40625l-4.390625 0l-1.625 3.640625l3.5625 -0.296875q-0.515625 -0.734375 -1.40625 -1.625l1.1875 -0.828125q1.78125 1.640625 2.890625 3.5625l-1.34375 0.96875l-0.59375 -0.890625l-6.890625 0.8125zm23.453125 -0.953125l0 1.40625l2.890625 0l0 1.1875l-6.390625 0l0 0.375l-1.25 0l0 -9.140625l7.34375 0l0 1.1875l-2.59375 0l0 1.34375l2.21875 0l0 3.640625l-2.21875 0zm5.265625 -2.96875q-0.75 1.109375 -1.703125 2.140625l-1.1875 -1.109375q2.078125 -2.21875 2.96875 -4.96875l1.484375 0.515625q0.4375 0.21875 -0.15625 0.453125q-0.21875 0.8125 -0.59375 1.328125l4.90625 0l0 1.640625l-5.71875 0zm-3.484375 11.28125l2.21875 0l0 -3.34375l-2.21875 0l0 3.34375zm8.3125 -7.203125l-5.640625 0l0 -1.640625l5.640625 0l0 1.640625zm-2.609375 7.203125l0 -3.34375l-2.21875 0l0 3.34375l2.21875 0zm-6.96875 0l0 -3.34375l-2.234375 0l0 3.34375l2.234375 0zm8.234375 0l2.53125 0l0 1.40625l-16.921875 0l0 -1.40625l2.671875 0l0 -4.75l11.71875 0l0 4.75zm-7.796875 -9.5l0 -1.265625l-4.453125 0l0 1.265625l4.453125 0zm-2.21875 -2.453125l0 -1.34375l-2.234375 0l0 1.34375l2.234375 0zm0 5.046875l0 -1.40625l-2.234375 0l0 1.40625l2.234375 0zm24.78125 -3.859375q0.59375 0.078125 0.078125 0.4375l-0.140625 1.125q-0.375 2.59375 -3.859375 3.40625l-0.453125 -1.5625q2.671875 -0.359375 2.890625 -2.21875l0.15625 -1.34375l1.328125 0.15625zm4.15625 3.046875q0.53125 0 0.59375 -0.53125l0.15625 -0.953125l1.484375 0.359375l-0.21875 1.34375q-0.234375 1.1875 -1.265625 1.1875l-1.9375 0q-1.484375 0 -1.484375 -1.34375l0 -3.328125l1.421875 0q0.59375 0.0625 0.0625 0.4375l0 2.234375q0 0.59375 0.53125 0.59375l0.65625 0zm-13.28125 9.5l-0.21875 -1.40625l1.109375 0q0.296875 0 0.296875 -0.3125l0 -4.75l-1.484375 0.53125q-0.21875 0.734375 -0.4375 0.0625l-0.53125 -1.484375l2.453125 -0.59375l0 -3.78125l-2.0 0l0 -1.40625l2.0 0l0 -3.78125l1.40625 0q0.59375 0.0625 0.078125 0.4375l0 3.34375l1.484375 0l0 1.40625l-1.484375 0l0 3.421875l1.484375 -0.453125l0.21875 1.265625l-1.703125 0.59375l0 5.796875q0 1.109375 -1.03125 1.109375l-1.640625 0zm5.5 -5.34375l0 -1.421875l9.125 0l0 1.421875l-3.859375 0l0 3.328125l5.265625 0l0 1.421875l-11.953125 0l0 -1.421875l5.203125 0l0 -3.328125l-3.78125 0zm5.265625 -9.5l5.046875 0l0 3.40625l-1.484375 0l0 -2.0l-8.234375 0l0 2.515625l-1.484375 0l0 -3.921875l4.671875 0l0 -2.15625l1.40625 0q0.59375 0.078125 0.078125 0.4375l0 1.71875zm23.453125 6.296875q-5.265625 -1.703125 -7.875 -6.234375q-2.8125 4.453125 -7.640625 6.609375l-0.8125 -1.78125q5.484375 -2.078125 7.859375 -6.90625l1.71875 0.375q0.21875 0.078125 -0.15625 0.453125q2.078125 3.921875 7.5 5.640625l-0.59375 1.84375zm-11.359375 -1.625l1.640625 0q0.734375 0.140625 0.0625 0.59375l0 3.046875q0 3.03125 -1.03125 4.375q-1.046875 1.34375 -3.484375 2.296875l-0.96875 -1.625q1.921875 -0.59375 2.890625 -1.640625q0.890625 -0.96875 0.890625 -3.484375l0 -3.5625zm5.421875 -0.15625l1.625 0q0.75 0.15625 0.078125 0.59375l0 9.734375l-1.703125 0l0 -10.328125zm24.265625 9.875l-1.484375 0l0 -0.734375l-11.359375 0l0 1.03125l-1.484375 0l0 -11.71875l6.09375 0l0.59375 -2.453125l-7.578125 0l0 -1.40625l16.109375 0l0 1.40625l-6.828125 0l-0.8125 2.453125l6.75 0l0 11.421875zm-10.234375 -2.15625l0 -7.859375l-2.609375 0l0 7.859375l2.609375 0zm4.671875 0l0 -1.84375l-3.1875 0l0 1.84375l3.1875 0zm0 -3.03125l0 -1.71875l-3.1875 0l0 1.71875l3.1875 0zm0 -4.828125l-3.1875 0l0 1.921875l3.1875 0l0 -1.921875zm4.078125 0l-2.59375 0l0 7.859375l2.59375 0l0 -7.859375z" fill-rule="nonzero"/><path fill="#000000" fill-opacity="0.0" d="m257.68372 290.6929l161.35434 0l0 56.59845l-161.35434 0z" fill-rule="evenodd"/><path stroke="#000000" stroke-width="1.0" stroke-linejoin="round" stroke-linecap="butt" d="m257.68372 290.6929l161.35434 0l0 56.59845l-161.35434 0z" fill-rule="evenodd"/><path fill="#000000" d="m278.77747 307.1934l0.59375 0.21875q0.296875 0.296875 -0.21875 0.375l-0.671875 1.328125l5.640625 0l0 1.421875l-1.921875 0q-0.59375 1.921875 -1.40625 2.890625q1.84375 0.671875 3.484375 1.640625l-0.890625 1.328125q-2.453125 -1.328125 -3.640625 -1.859375q-2.453125 1.640625 -5.71875 2.15625l-0.515625 -1.328125q3.125 -0.375 4.75 -1.5l-1.921875 -0.8125l-0.453125 0.671875l-1.1875 -0.59375l1.484375 -2.59375l-2.21875 0l0 -1.421875l2.96875 0l0.890625 -1.921875l-4.53125 0l0 -1.40625l3.046875 0l-0.828125 -2.671875l-1.109375 0l0 -1.421875l3.640625 0l0 -2.078125l1.40625 0q0.59375 0.078125 0.078125 0.453125l0 1.625l4.15625 0l0 1.421875l-1.5625 0l-0.8125 2.671875l3.40625 0l0 1.40625l-5.9375 0zm0.671875 5.71875q0.75 -0.828125 1.1875 -2.375l-2.8125 0l-0.890625 1.484375l2.515625 0.890625zm-1.5625 -7.125l1.9375 0l0.734375 -2.671875l-3.484375 0l0.8125 2.671875zm-7.9375 -6.171875l1.40625 0q0.59375 0.078125 0.078125 0.453125l0 2.890625l2.078125 0l0 1.40625l-2.078125 0l0 3.859375l1.5625 -0.515625l0.515625 1.265625l-2.078125 0.8125l0 5.875q0 1.03125 -1.03125 1.03125l-1.421875 0l-0.21875 -1.40625l0.890625 0q0.296875 0 0.296875 -0.296875l0 -4.6875l-1.265625 0.375q-0.0625 0.515625 -0.359375 0.21875l-0.59375 -1.625l2.21875 -0.59375l0 -4.3125l-2.0 0l0 -1.40625l2.0 0l0 -3.34375zm21.671875 16.484375l0 -4.671875l-3.703125 1.328125q-0.234375 0.75 -0.53125 0.15625l-0.734375 -1.484375l1.484375 -0.453125l0 -9.203125l1.40625 0q0.59375 0.078125 0.078125 0.453125l0 8.3125l2.0 -0.671875l0 -9.875l1.40625 0q0.59375 0.078125 0.078125 0.453125l0 15.65625l-1.484375 0zm6.984375 -5.71875q1.25 -2.15625 1.625 -4.96875l-3.265625 0q0.375 2.96875 1.640625 4.96875zm-5.125 -2.21875q2.453125 -2.828125 3.40625 -8.3125l1.1875 0.21875q0.890625 0.21875 0.078125 0.515625q-0.296875 1.34375 -0.890625 3.421875l6.15625 0l0 1.40625l-1.78125 0q-0.59375 3.703125 -2.140625 6.15625q1.625 1.640625 4.0 2.671875l-0.8125 1.484375q-2.296875 -1.109375 -4.078125 -2.890625q-1.78125 2.078125 -4.234375 3.125l-0.8125 -1.34375q2.8125 -1.1875 4.15625 -2.96875q-1.1875 -1.859375 -1.859375 -4.375q-0.8125 1.328125 -1.34375 1.84375l-1.03125 -0.953125zm17.890625 -1.78125l0 1.40625l2.890625 0l0 1.1875l-6.390625 0l0 0.375l-1.25 0l0 -9.140625l7.34375 0l0 1.1875l-2.59375 0l0 1.34375l2.21875 0l0 3.640625l-2.21875 0zm5.265625 -2.96875q-0.75 1.109375 -1.703125 2.140625l-1.1875 -1.109375q2.078125 -2.21875 2.96875 -4.96875l1.484375 0.515625q0.4375 0.21875 -0.15625 0.453125q-0.21875 0.8125 -0.59375 1.328125l4.90625 0l0 1.640625l-5.71875 0zm-3.484375 11.28125l2.21875 0l0 -3.34375l-2.21875 0l0 3.34375zm8.3125 -7.203125l-5.640625 0l0 -1.640625l5.640625 0l0 1.640625zm-2.609375 7.203125l0 -3.34375l-2.21875 0l0 3.34375l2.21875 0zm-6.96875 0l0 -3.34375l-2.234375 0l0 3.34375l2.234375 0zm8.234375 0l2.53125 0l0 1.40625l-16.921875 0l0 -1.40625l2.671875 0l0 -4.75l11.71875 0l0 4.75zm-7.796875 -9.5l0 -1.265625l-4.453125 0l0 1.265625l4.453125 0zm-2.21875 -2.453125l0 -1.34375l-2.234375 0l0 1.34375l2.234375 0zm0 5.046875l0 -1.40625l-2.234375 0l0 1.40625l2.234375 0zm24.78125 -3.859375q0.59375 0.078125 0.078125 0.4375l-0.140625 1.125q-0.375 2.59375 -3.859375 3.40625l-0.453125 -1.5625q2.671875 -0.359375 2.890625 -2.21875l0.15625 -1.34375l1.328125 0.15625zm4.15625 3.046875q0.53125 0 0.59375 -0.53125l0.15625 -0.953125l1.484375 0.359375l-0.21875 1.34375q-0.234375 1.1875 -1.265625 1.1875l-1.9375 0q-1.484375 0 -1.484375 -1.34375l0 -3.328125l1.421875 0q0.59375 0.0625 0.0625 0.4375l0 2.234375q0 0.59375 0.53125 0.59375l0.65625 0zm-13.28125 9.5l-0.21875 -1.40625l1.109375 0q0.296875 0 0.296875 -0.3125l0 -4.75l-1.484375 0.53125q-0.21875 0.734375 -0.4375 0.0625l-0.53125 -1.484375l2.453125 -0.59375l0 -3.78125l-2.0 0l0 -1.40625l2.0 0l0 -3.78125l1.40625 0q0.59375 0.0625 0.078125 0.4375l0 3.34375l1.484375 0l0 1.40625l-1.484375 0l0 3.421875l1.484375 -0.453125l0.21875 1.265625l-1.703125 0.59375l0 5.796875q0 1.109375 -1.03125 1.109375l-1.640625 0zm5.5 -5.34375l0 -1.421875l9.125 0l0 1.421875l-3.859375 0l0 3.328125l5.265625 0l0 1.421875l-11.953125 0l0 -1.421875l5.203125 0l0 -3.328125l-3.78125 0zm5.265625 -9.5l5.046875 0l0 3.40625l-1.484375 0l0 -2.0l-8.234375 0l0 2.515625l-1.484375 0l0 -3.921875l4.671875 0l0 -2.15625l1.40625 0q0.59375 0.078125 0.078125 0.4375l0 1.71875zm23.453125 6.296875q-5.265625 -1.703125 -7.875 -6.234375q-2.8125 4.453125 -7.640625 6.609375l-0.8125 -1.78125q5.484375 -2.078125 7.859375 -6.90625l1.71875 0.375q0.21875 0.078125 -0.15625 0.453125q2.078125 3.921875 7.5 5.640625l-0.59375 1.84375zm-11.359375 -1.625l1.640625 0q0.734375 0.140625 0.0625 0.59375l0 3.046875q0 3.03125 -1.03125 4.375q-1.046875 1.34375 -3.484375 2.296875l-0.96875 -1.625q1.921875 -0.59375 2.890625 -1.640625q0.890625 -0.96875 0.890625 -3.484375l0 -3.5625zm5.421875 -0.15625l1.625 0q0.75 0.15625 0.078125 0.59375l0 9.734375l-1.703125 0l0 -10.328125zm24.265625 9.875l-1.484375 0l0 -0.734375l-11.359375 0l0 1.03125l-1.484375 0l0 -11.71875l6.09375 0l0.59375 -2.453125l-7.578125 0l0 -1.40625l16.109375 0l0 1.40625l-6.828125 0l-0.8125 2.453125l6.75 0l0 11.421875zm-10.234375 -2.15625l0 -7.859375l-2.609375 0l0 7.859375l2.609375 0zm4.671875 0l0 -1.84375l-3.1875 0l0 1.84375l3.1875 0zm0 -3.03125l0 -1.71875l-3.1875 0l0 1.71875l3.1875 0zm0 -4.828125l-3.1875 0l0 1.921875l3.1875 0l0 -1.921875zm4.078125 0l-2.59375 0l0 7.859375l2.59375 0l0 -7.859375zm11.28125 3.78125l4.15625 0l0 -3.9375l-4.15625 0l0 3.9375zm4.15625 2.15625l0 -0.75l-4.15625 0l0 0.828125l-1.484375 0l0 -7.578125l7.125 0l0 7.5l-1.484375 0zm-8.09375 2.078125l11.953125 0l0 -12.09375l-11.953125 0l0 12.09375zm11.953125 2.078125l0 -0.671875l-11.953125 0l0 1.046875l-1.484375 0l0 -15.96875l14.921875 0l0 15.59375l-1.484375 0z" fill-rule="nonzero"/><path fill="#000000" d="m267.13684 329.41214q2.890625 -3.484375 3.484375 -7.796875l1.40625 0.234375q0.75 0.140625 0 0.65625q-0.515625 2.078125 -1.1875 3.796875q0.8125 0.4375 0.21875 0.65625l0 11.734375l-1.484375 0l0 -9.953125q-0.734375 1.1875 -1.40625 1.9375l-1.03125 -1.265625zm6.234375 1.34375l0 -5.71875l3.859375 0l0 -0.75l-4.90625 0l0 -1.1875l4.90625 0l0 -1.546875l1.40625 0q0.59375 0.0625 0.078125 0.4375l0 1.109375l5.484375 0l0 1.1875l-5.484375 0l0 0.75l4.078125 0l0 5.421875l-1.109375 0q1.1875 0.8125 2.4375 1.84375l-1.03125 0.75l-0.890625 -0.75l-1.046875 0.078125l0 1.34375l3.640625 0l0 1.1875l-3.640625 0l0 2.375q0 1.328125 -1.109375 1.328125l-1.625 0l-0.296875 -1.40625l1.328125 0q0.21875 0 0.21875 -0.21875l0 -2.078125l-4.21875 0q0.890625 0.734375 1.703125 1.84375l-1.265625 0.96875q-0.734375 -0.96875 -1.78125 -1.921875l1.046875 -0.890625l-3.34375 0l0 -1.1875l7.859375 0l0 -1.265625l-6.453125 0.296875q-0.515625 0.671875 -0.671875 -0.078125l-0.21875 -1.1875l4.90625 0l0 -1.03125l-2.609375 0l0 0.296875l-1.25 0zm5.34375 -4.53125l0 0.890625l2.8125 0l0 -0.890625l-2.8125 0zm-4.09375 0l0 0.890625l2.609375 0l0 -0.890625l-2.609375 0zm4.09375 2.078125l0 0.96875l2.8125 0l0 -0.96875l-2.8125 0zm0 2.15625l0 0.953125l2.4375 0l-0.8125 -0.59375l0.8125 -0.359375l-2.4375 0zm-1.484375 -2.15625l-2.609375 0l0 0.96875l2.609375 0l0 -0.96875zm20.109375 -1.9375q-0.75 2.078125 -2.375 3.9375l-1.109375 -1.328125q2.515625 -2.53125 3.1875 -7.203125l1.5625 0.515625q0.65625 0.296875 -0.078125 0.453125q-0.21875 1.03125 -0.59375 2.21875l5.34375 0l-0.375 10.09375q-0.078125 2.96875 -2.375 2.96875l-2.078125 0l-0.21875 -1.40625l1.921875 0q1.046875 0 1.125 -1.34375l0.359375 -8.90625l-4.296875 0zm0.890625 6.90625q-1.046875 -1.484375 -2.296875 -2.671875l1.25 -1.328125q1.484375 1.328125 2.375 2.59375l-1.328125 1.40625zm-8.765625 -8.3125q0.453125 -1.40625 0.828125 -3.265625l1.78125 0.671875q0.296875 0.296875 -0.234375 0.375q-0.21875 0.953125 -0.8125 2.21875l2.75 0l0 12.25l-1.484375 0l0 -0.890625l-3.265625 0l0 1.484375l-1.484375 0l0 -12.84375l1.921875 0zm2.828125 1.40625l-3.265625 0l0 3.265625l3.265625 0l0 -3.265625zm0 4.6875l-3.265625 0l0 3.859375l3.265625 0l0 -3.859375zm20.921875 3.78125l0 -9.203125l-5.859375 0l0 -1.640625l13.4375 0l0 1.640625l-5.859375 0l0 9.203125l7.265625 0l0 1.625l-16.171875 0l0 -1.625l7.1875 0zm28.0625 -10.015625l0 1.40625l-5.34375 0l0 2.75l4.671875 0l0 1.40625l-4.671875 0l0 2.453125l4.96875 0l0 1.40625l-4.96875 0l0 4.15625l-1.484375 0l0 -12.171875l-0.75 0q-1.1875 2.515625 -2.515625 3.859375l-1.40625 -1.046875q2.96875 -3.109375 3.703125 -7.34375l1.5625 0.453125q0.4375 0.21875 -0.078125 0.359375q-0.140625 0.75 -0.734375 2.3125l7.046875 0zm-16.625 5.1875q3.265625 -3.78125 4.296875 -8.15625l1.640625 0.515625q0.4375 0.296875 -0.078125 0.375q-0.515625 1.703125 -1.484375 3.703125l0.453125 0.15625q0.296875 0.296875 -0.234375 0.359375l0 11.4375l-1.484375 0l0 -9.65625q-0.8125 1.34375 -1.921875 2.53125l-1.1875 -1.265625zm28.640625 -6.671875l6.765625 0l0 1.40625l-13.515625 0l0 7.859375q0 2.90625 -1.703125 5.71875l-1.484375 -1.109375q1.703125 -2.59375 1.703125 -5.71875l0 -8.15625l6.53125 0l0 -1.859375l1.640625 0q0.734375 0.140625 0.0625 0.59375l0 1.265625zm0.671875 7.640625q2.0 -2.453125 2.296875 -5.5l1.484375 0.296875q0.453125 0.15625 0 0.375q-0.21875 1.046875 -0.4375 1.78125q1.859375 0.890625 2.890625 1.9375l-0.96875 1.484375q-1.1875 -1.1875 -2.375 -2.15625q-0.734375 1.703125 -1.703125 2.75l-1.1875 -0.890625l0 1.40625l5.125 0l0 1.40625l-5.125 0l0 2.59375l6.53125 0l0 1.421875l-13.953125 0l0 -1.421875l5.9375 0l0 -2.59375l-4.53125 0l0 -1.40625l4.53125 0l0 -2.453125l-0.96875 1.40625q-1.03125 -1.03125 -1.921875 -1.703125q-0.671875 1.40625 -1.640625 2.453125l-1.1875 -1.109375q2.078125 -2.078125 2.3125 -5.34375l1.484375 0.296875q0.4375 0.140625 0 0.359375q-0.234375 1.421875 -0.453125 2.078125q0.890625 0.234375 2.375 1.421875l0 -4.609375l1.40625 0q0.59375 0.078125 0.078125 0.453125l0 5.265625zm18.1875 4.375q0.296875 0.296875 -0.296875 0.296875q-1.484375 1.484375 -3.046875 2.453125l-0.96875 -1.34375q1.9375 -1.03125 3.125 -2.4375l1.1875 1.03125zm2.8125 1.859375q0 1.1875 -1.1875 1.1875l-0.953125 0l-0.375 -1.40625l0.734375 0q0.296875 0 0.296875 -0.296875l0 -2.828125l-5.046875 0l0 -1.40625l11.21875 0l0 1.40625l-4.6875 0l0 3.34375zm1.484375 -2.828125q1.640625 1.34375 3.125 2.078125l-0.8125 1.34375q-1.484375 -0.671875 -3.265625 -2.453125l0.953125 -0.96875zm-14.25 -1.328125q2.671875 -3.125 3.046875 -6.09375l-2.453125 0l0 -1.40625l2.453125 0l0 -3.859375l1.40625 0q0.59375 0.078125 0.078125 0.453125l0 3.40625l2.0 0l0 1.40625l-2.0 0l0 1.859375q1.109375 0.59375 2.15625 1.703125l-0.8125 1.421875q-0.671875 -0.75 -1.34375 -1.265625l0 8.015625l-1.484375 0l0 -7.421875q-0.671875 1.625 -2.078125 3.046875l-0.96875 -1.265625zm16.03125 -1.5625l-8.375 0l0 -1.40625l8.375 0l0 1.40625zm-6.15625 -3.640625l0 -1.921875l-1.484375 0l0 1.921875l1.484375 0zm2.75 0l0 -1.921875l-1.484375 0l0 1.921875l1.484375 0zm1.265625 0l1.484375 0l0 -1.921875l-1.484375 0l0 1.921875zm2.734375 -3.109375l0 4.296875l-9.5 0l0 -4.296875l2.75 0l0 -1.046875l-3.1875 0l0 -1.40625l10.390625 0l0 1.40625l-3.1875 0l0 1.046875l2.734375 0zm-5.484375 0l1.484375 0l0 -1.046875l-1.484375 0l0 1.046875z" fill-rule="nonzero"/><path fill="#000000" fill-opacity="0.0" d="m257.68372 379.79266l161.35434 0l0 56.59842l-161.35434 0z" fill-rule="evenodd"/><path stroke="#000000" stroke-width="2.0" stroke-linejoin="round" stroke-linecap="butt" stroke-dasharray="8.0,6.0" d="m257.68372 379.79266l161.35434 0l0 56.59842l-161.35434 0z" fill-rule="evenodd"/><path fill="#000000" d="m289.89215 412.93375l0 -9.203125l-5.859375 0l0 -1.640625l13.4375 0l0 1.640625l-5.859375 0l0 9.203125l7.265625 0l0 1.625l-16.171875 0l0 -1.625l7.1875 0zm28.0625 -10.015625l0 1.40625l-5.34375 0l0 2.75l4.671875 0l0 1.40625l-4.671875 0l0 2.453125l4.96875 0l0 1.40625l-4.96875 0l0 4.15625l-1.484375 0l0 -12.171875l-0.75 0q-1.1875 2.515625 -2.515625 3.859375l-1.40625 -1.046875q2.96875 -3.109375 3.703125 -7.34375l1.5625 0.453125q0.4375 0.21875 -0.078125 0.359375q-0.140625 0.75 -0.734375 2.3125l7.046875 0zm-16.625 5.1875q3.265625 -3.78125 4.296875 -8.15625l1.640625 0.515625q0.4375 0.296875 -0.078125 0.375q-0.515625 1.703125 -1.484375 3.703125l0.453125 0.15625q0.296875 0.296875 -0.234375 0.359375l0 11.4375l-1.484375 0l0 -9.65625q-0.8125 1.34375 -1.921875 2.53125l-1.1875 -1.265625zm33.09375 6.234375l0 -3.34375l-3.703125 0l0 3.34375l3.703125 0zm1.484375 2.015625l-1.484375 0l0 -0.828125l-3.703125 0l0 1.046875l-1.484375 0l0 -6.765625l6.671875 0l0 6.546875zm-5.265625 -13.8125q0.375 1.03125 1.859375 2.671875q1.328125 -1.78125 1.703125 -2.671875l-3.5625 0zm1.859375 4.75q-2.59375 2.375 -4.828125 3.1875l-0.671875 -1.484375q2.078125 -0.671875 4.53125 -2.8125q-0.59375 -0.59375 -1.5625 -2.15625q-0.734375 1.703125 -1.484375 2.453125l-1.109375 -1.125q1.78125 -2.375 2.75 -5.9375l1.5625 0.453125q0.296875 0.296875 -0.234375 0.375l-0.359375 0.890625l3.78125 0l0.21875 -0.375l1.1875 0.96875q0.296875 0.21875 -0.296875 0.4375q-1.03125 2.375 -2.453125 4.015625q2.53125 1.921875 4.3125 2.515625l-0.59375 1.640625q-1.78125 -0.59375 -4.75 -3.046875zm-5.421875 -6.6875l0 5.5l-1.859375 0l0 2.75l1.71875 0l0 1.40625l-1.71875 0l0 3.40625l2.609375 -0.8125l0.296875 1.34375l-6.828125 1.921875q-0.078125 0.59375 -0.375 0.296875l-0.59375 -1.625l0.890625 -0.15625l0 -6.90625l1.40625 0q0.59375 0.078125 0.078125 0.453125l0 6.078125l1.03125 -0.21875l0 -7.9375l-1.328125 0l-1.265625 0l0 -5.5l5.9375 0zm-1.484375 4.3125l0 -3.125l-2.96875 0l0 3.125l2.96875 0zm25.984375 -3.421875l3.5625 0l0 6.53125l-3.265625 0l0 0.890625q0 0.53125 0.8125 1.859375l2.296875 -2.296875l1.046875 1.1875q0.0625 0.375 -0.375 0.21875l-2.296875 1.78125q1.1875 1.5625 3.1875 2.828125l-0.8125 1.484375q-2.3125 -1.484375 -3.859375 -4.234375l0 3.71875q0 1.109375 -0.890625 1.109375l-1.421875 0l-0.296875 -1.1875l1.046875 0q0.296875 0 0.296875 -0.296875l0 -7.0625l-1.640625 0l-1.546875 0l0 -6.53125l2.8125 0l0.453125 -2.0l1.546875 0.296875q0.59375 0.21875 -0.0625 0.453125l-0.59375 1.25zm-1.484375 8.390625l-0.15625 0.375q-0.078125 4.15625 -3.265625 5.9375l-0.96875 -1.109375q2.671875 -1.640625 2.828125 -4.3125l-1.9375 0l0 -1.1875l2.15625 0l0.21875 -0.21875l1.125 0.515625zm-6.234375 -9.046875q-1.5625 2.515625 -2.078125 3.265625l0.953125 0.8125l2.015625 -3.125l1.1875 0.828125q0.296875 0.296875 -0.234375 0.359375q-2.0 2.96875 -3.265625 4.453125l2.453125 -0.21875l-0.515625 -1.03125l1.109375 -0.59375q1.109375 1.40625 1.640625 3.03125l-1.34375 0.59375l-0.375 -0.8125l-1.546875 0.21875l0 8.171875l-1.484375 0l0 -8.015625l-2.453125 0.140625q-0.375 0.453125 -0.453125 -0.296875l-0.140625 -1.109375l1.484375 0l1.03125 -1.40625l-2.296875 -1.859375l0.75 -1.109375l0.359375 0.21875q1.484375 -2.296875 2.078125 -3.5625l1.34375 0.671875q0.296875 0.296875 -0.21875 0.375zm-4.15625 13.796875q0.59375 -2.8125 0.59375 -4.453125l1.328125 0.15625q0.59375 0.140625 0.078125 0.359375q0 2.453125 -0.59375 4.6875l-1.40625 -0.75zm8.96875 -10.46875l5.203125 0l0 -1.484375l-5.203125 0l0 1.484375zm5.203125 2.671875l0 -1.484375l-5.203125 0l0 1.484375l5.203125 0zm-8.171875 3.265625q0.53125 1.125 0.75 3.125l-1.40625 0.296875q-0.078125 -1.265625 -0.59375 -3.125l1.25 -0.296875zm27.09375 -2.375l-4.828125 0l0 1.640625l4.828125 0l0 -1.640625zm-2.0 3.046875l-1.34375 0l0 0.75q0 4.59375 -5.265625 5.421875l-0.4375 -1.5625q4.21875 -0.53125 4.21875 -4.015625l0 -0.59375l-0.734375 0l-0.75 0l0 -10.390625l7.796875 0l0 10.390625l-2.0 0l0 3.71875q0 0.59375 0.515625 0.59375l0.75 0q0.359375 0 0.4375 -0.75l0.15625 -1.265625l1.484375 0.453125l-0.234375 1.703125q-0.140625 1.265625 -1.40625 1.265625l-1.859375 0q-1.328125 0 -1.328125 -1.265625l0 -4.453125zm-2.828125 -4.453125l4.828125 0l0 -1.5625l-4.828125 0l0 1.5625zm0 -2.96875l4.828125 0l0 -1.5625l-4.828125 0l0 1.5625zm-5.34375 6.609375q1.484375 0.671875 3.5 2.453125l-1.046875 1.546875q-1.5625 -1.703125 -2.75 -2.515625q-0.734375 3.265625 -3.109375 5.125l-1.109375 -1.34375q3.265625 -2.75 3.109375 -7.125l-2.8125 0l0 -1.40625l2.890625 0l0 -2.671875l-2.375 0l0 -1.40625l2.375 0l0 -2.96875l1.40625 0q0.59375 0.0625 0.078125 0.4375l0 2.53125l2.59375 0l0 1.40625l-2.59375 0l0 2.671875l2.96875 0l0 1.40625l-3.046875 0q0 1.1875 -0.078125 1.859375zm26.06247 6.015625l-10.6249695 0.515625q-0.4375 0.671875 -0.59375 -0.078125l-0.140625 -1.1875l11.3593445 -0.296875l0 1.046875zm-10.0312195 -6.53125l8.5468445 0l0 4.671875l-8.5468445 0l0 -4.671875zm4.828125 -10.03125q0.59375 0.078125 0.078125 0.453125l0 0.734375l3.5624695 0l0 1.78125l1.40625 0l0 0.890625l-1.40625 0l0 1.859375l-3.5624695 0l0 0.890625l3.5624695 0l0 0.890625l-3.5624695 0l0 0.890625l4.9687195 0l0 0.890625l-11.2812195 0l0 -0.890625l5.046875 0l0 -0.890625l-3.640625 0l0 -0.890625l3.640625 0l0 -0.890625l-3.640625 0l0 -0.890625l3.640625 0l0 -0.96875l-4.890625 0l0 -0.890625l4.890625 0l0 -0.890625l-3.640625 0l0 -0.890625l3.640625 0l0 -1.1875l1.1875 0zm0.078125 2.078125l0 0.890625l2.2968445 0l0 -0.890625l-2.2968445 0zm-1.265625 9.875l0 -1.03125l-2.375 0l0 1.03125l2.375 0zm3.6405945 0l0 -1.03125l-2.3749695 0l0 1.03125l2.3749695 0zm7.71875 -11.421875q0.59375 0.0625 0.078125 0.4375l0 15.0q0 1.1875 -1.1875 1.1875l-1.71875 0l-0.21875 -1.40625l1.34375 0q0.296875 0 0.296875 -0.3125l0 -14.90625l1.40625 0zm-2.890625 1.78125q0.59375 0.0625 0.0625 0.4375l0 10.3125l-1.484375 0l0 -10.75l1.421875 0zm-4.90625 2.515625l0 -0.96875l-2.2968445 0l0 0.96875l2.2968445 0zm-3.5624695 8.984375l0 -0.96875l-2.375 0l0 0.96875l2.375 0zm3.6405945 0l0 -0.96875l-2.3749695 0l0 0.96875l2.3749695 0z" fill-rule="nonzero"/><path fill="#000000" fill-opacity="0.0" d="m257.68372 468.8924l161.35434 0l0 56.59839l-161.35434 0z" fill-rule="evenodd"/><path stroke="#000000" stroke-width="2.0" stroke-linejoin="round" stroke-linecap="butt" stroke-dasharray="8.0,6.0" d="m257.68372 468.8924l161.35434 0l0 56.59839l-161.35434 0z" fill-rule="evenodd"/><path fill="#000000" d="m301.1734 503.81473q1.78125 -0.59375 2.96875 -1.640625l0 -4.515625l-2.671875 0l0 -1.421875l4.15625 0l0 6.09375q1.34375 1.484375 3.796875 1.484375l9.046875 0l-0.375 1.40625l-8.671875 0q-3.203125 0 -4.75 -2.078125q-0.890625 1.34375 -2.671875 2.3125l-0.828125 -1.640625zm6.6875 -8.90625q-0.890625 1.1875 -1.484375 1.5625l-0.75 -1.640625q2.828125 -2.515625 3.71875 -6.234375l1.625 0.453125q0.59375 0.21875 -0.140625 0.4375q-0.375 1.109375 -1.046875 2.296875l2.3125 0q1.03125 -1.546875 1.484375 -3.03125l1.625 0.59375q0.515625 0.359375 -0.21875 0.4375q-0.515625 0.890625 -1.40625 2.0l3.921875 0l0 1.1875l-3.921875 0l0 1.859375l3.328125 0l0 1.1875l-3.328125 0l0 1.703125l3.265625 0l0 1.1875l-3.265625 0l0 2.015625l4.453125 0l0 1.1875l-8.6875 0l0 0.8125l-1.484375 0l0 -8.015625zm1.484375 4.0l0 2.015625l2.75 0l0 -2.015625l-2.75 0zm0 -2.890625l0 1.703125l2.75 0l0 -1.703125l-2.75 0zm0 -3.046875l0 1.859375l2.75 0l0 -1.859375l-2.75 0zm-4.234375 -0.21875q-0.96875 -1.109375 -2.59375 -2.15625l1.03125 -1.1875q1.859375 1.046875 2.75 2.078125l-1.1875 1.265625zm20.9375 -2.296875q-2.3125 2.8125 -4.234375 3.9375l-0.890625 -1.34375q2.078125 -1.1875 4.15625 -3.9375l1.109375 0.96875q0.375 0.453125 -0.140625 0.375zm-1.046875 15.21875l-1.484375 0l0 -7.875q-0.734375 0.8125 -2.21875 1.78125l-0.96875 -1.484375q3.1875 -1.921875 5.421875 -5.421875l1.1875 0.96875q0.359375 0.453125 -0.15625 0.375q-0.890625 1.1875 -1.78125 2.296875l0 9.359375zm10.84375 -15.59375l0 1.40625l-8.015625 0l0 -1.40625l8.015625 0zm-8.84375 6.15625l0 -1.40625l10.328125 0l0 1.40625l-3.125 0l0 7.578125q0 1.5625 -1.265625 1.5625l-2.0 0l-0.296875 -1.421875l1.78125 0q0.296875 0 0.296875 -0.296875l0 -7.421875l-5.71875 0zm19.890625 5.796875l0 -9.203125l-5.859375 0l0 -1.640625l13.4375 0l0 1.640625l-5.859375 0l0 9.203125l7.265625 0l0 1.625l-16.171875 0l0 -1.625l7.1875 0zm28.0625 -10.015625l0 1.40625l-5.34375 0l0 2.75l4.671875 0l0 1.40625l-4.671875 0l0 2.453125l4.96875 0l0 1.40625l-4.96875 0l0 4.15625l-1.484375 0l0 -12.171875l-0.75 0q-1.1875 2.515625 -2.515625 3.859375l-1.40625 -1.046875q2.96875 -3.109375 3.703125 -7.34375l1.5625 0.453125q0.4375 0.21875 -0.078125 0.359375q-0.140625 0.75 -0.734375 2.3125l7.046875 0zm-16.625 5.1875q3.265625 -3.78125 4.296875 -8.15625l1.640625 0.515625q0.4375 0.296875 -0.078125 0.375q-0.515625 1.703125 -1.484375 3.703125l0.453125 0.15625q0.296875 0.296875 -0.234375 0.359375l0 11.4375l-1.484375 0l0 -9.65625q-0.8125 1.34375 -1.921875 2.53125l-1.1875 -1.265625z" fill-rule="nonzero"/><path fill="#000000" fill-opacity="0.0" d="m283.64224 552.30707l109.436676 0l0 0c14.336487 0 25.958496 12.669556 25.958496 28.298279c0 15.628723 -11.622009 28.298279 -25.958496 28.298279l-109.436676 0l0 0c-14.336487 0 -25.958527 -12.669556 -25.958527 -28.298279c0 -15.628723 11.62204 -28.298279 25.958527 -28.298279z" fill-rule="evenodd"/><path stroke="#000000" stroke-width="1.0" stroke-linejoin="round" stroke-linecap="butt" d="m283.64224 552.30707l109.436676 0l0 0c14.336487 0 25.958496 12.669556 25.958496 28.298279c0 15.628723 -11.622009 28.298279 -25.958496 28.298279l-109.436676 0l0 0c-14.336487 0 -25.958527 -12.669556 -25.958527 -28.298279c0 -15.628723 11.62204 -28.298279 25.958527 -28.298279z" fill-rule="evenodd"/><path fill="#000000" d="m322.6262 582.7753q0.515625 0.140625 0 0.4375q0 2.53125 -0.671875 4.46875l-1.484375 -0.671875q0.671875 -2.15625 0.59375 -4.390625l1.5625 0.15625zm4.15625 -2.078125l-1.78125 0.21875l0 8.25l-1.484375 0l0 -8.03125l-2.75 0.234375q-0.0625 0.515625 -0.359375 0.21875l-0.296875 -1.703125l1.703125 0q0.59375 -0.59375 1.109375 -1.265625q-1.265625 -1.046875 -2.59375 -1.859375l0.734375 -1.1875l0.59375 0.296875q1.421875 -2.078125 2.234375 -3.78125l1.40625 0.8125q0.296875 0.296875 -0.296875 0.375q-0.734375 1.484375 -2.21875 3.34375l1.03125 0.8125q1.1875 -1.703125 2.078125 -3.34375l1.265625 0.75q0.4375 0.296875 -0.15625 0.359375q-1.03125 1.859375 -3.484375 4.609375l2.828125 -0.15625q-0.375 -0.734375 -0.890625 -1.40625l1.25 -0.515625q1.125 1.03125 2.015625 3.34375l-1.484375 0.65625l-0.453125 -1.03125zm-0.21875 5.859375q-0.296875 -2.296875 -0.890625 -3.859375l1.328125 -0.4375q0.828125 1.40625 1.125 3.859375l-1.5625 0.4375zm8.53125 0.078125l0 -3.484375l-4.453125 0l0 3.484375l4.453125 0zm-4.453125 1.40625l0 1.046875l-1.484375 0l0 -7.359375l7.421875 0l0 7.140625l-1.484375 0l0 -0.828125l-4.453125 0zm2.828125 -9.421875l3.40625 0l0 1.40625l-8.15625 0l0 -1.40625l3.265625 0l0 -2.296875l-3.859375 0l0 -1.421875l3.859375 0l0 -2.671875l1.40625 0q0.59375 0.078125 0.078125 0.453125l0 2.21875l3.921875 0l0 1.421875l-3.921875 0l0 2.296875zm22.328125 10.015625q-4.21875 -1.40625 -7.265625 -4.671875l0 5.046875l-1.484375 0l0 -4.90625q-3.125 3.265625 -7.046875 4.53125l-0.671875 -1.703125q4.296875 -1.109375 7.265625 -4.3125l-3.1875 0l0 0.671875l-1.484375 0l0 -5.640625l5.125 0l0 -1.703125l-7.28125 0l0 -1.40625l7.28125 0l0 -2.3125l1.40625 0q0.59375 0.078125 0.078125 0.453125l0 1.859375l7.125 0l0 1.40625l-7.125 0l0 1.703125l5.125 0l0 5.640625l-1.484375 0l0 -0.671875l-3.203125 0q3.203125 3.125 7.5 4.3125l-0.671875 1.703125zm-8.75 -7.421875l0 -2.15625l-3.640625 0l0 2.15625l3.640625 0zm5.125 0l0 -2.15625l-3.640625 0l0 2.15625l3.640625 0z" fill-rule="nonzero"/><path fill="#000000" fill-opacity="0.0" d="m338.36057 79.99286l0 32.503937" fill-rule="evenodd"/><path stroke="#000000" stroke-width="1.0" stroke-linejoin="round" stroke-linecap="butt" d="m338.3606 79.99286l0 26.503944" fill-rule="evenodd"/><path fill="#000000" stroke="#000000" stroke-width="1.0" stroke-linecap="butt" d="m336.70886 106.4968l1.6517334 4.5380936l1.6517334 -4.5380936z" fill-rule="evenodd"/><path fill="#000000" fill-opacity="0.0" d="m338.3609 169.09186l0 32.503937" fill-rule="evenodd"/><path stroke="#000000" stroke-width="1.0" stroke-linejoin="round" stroke-linecap="butt" d="m338.3609 169.09186l0 26.503937" fill-rule="evenodd"/><path fill="#000000" stroke="#000000" stroke-width="1.0" stroke-linecap="butt" d="m336.70917 195.5958l1.6517334 4.538101l1.6517334 -4.538101z" fill-rule="evenodd"/><path fill="#000000" fill-opacity="0.0" d="m338.3609 258.1916l0 32.503937" fill-rule="evenodd"/><path stroke="#000000" stroke-width="1.0" stroke-linejoin="round" stroke-linecap="butt" d="m338.3609 258.1916l0 26.503937" fill-rule="evenodd"/><path fill="#000000" stroke="#000000" stroke-width="1.0" stroke-linecap="butt" d="m336.70917 284.69553l1.6517334 4.5381165l1.6517334 -4.5381165z" fill-rule="evenodd"/><path fill="#000000" fill-opacity="0.0" d="m338.3609 347.29135l0 32.503937" fill-rule="evenodd"/><path stroke="#000000" stroke-width="1.0" stroke-linejoin="round" stroke-linecap="butt" d="m338.3609 347.29135l0 26.503937" fill-rule="evenodd"/><path fill="#000000" stroke="#000000" stroke-width="1.0" stroke-linecap="butt" d="m336.70917 373.7953l1.6517334 4.538086l1.6517334 -4.538086z" fill-rule="evenodd"/><path fill="#000000" fill-opacity="0.0" d="m338.3609 436.39108l0 32.503937" fill-rule="evenodd"/><path stroke="#000000" stroke-width="1.0" stroke-linejoin="round" stroke-linecap="butt" d="m338.3609 436.39108l0 26.503937" fill-rule="evenodd"/><path fill="#000000" stroke="#000000" stroke-width="1.0" stroke-linecap="butt" d="m336.70917 462.89502l1.6517334 4.538086l1.6517334 -4.538086z" fill-rule="evenodd"/><path fill="#000000" fill-opacity="0.0" d="m338.3609 525.4908l0 26.803162" fill-rule="evenodd"/><path stroke="#000000" stroke-width="1.0" stroke-linejoin="round" stroke-linecap="butt" d="m338.3609 525.4908l0 20.803162" fill-rule="evenodd"/><path fill="#000000" stroke="#000000" stroke-width="1.0" stroke-linecap="butt" d="m336.70917 546.29395l1.6517334 4.538086l1.6517334 -4.538086z" fill-rule="evenodd"/></g></svg>